<svg width="331" height="34" viewBox="0 0 331 34" fill="none" xmlns="http://www.w3.org/2000/svg">
<path d="M6.65332 21.5176H16.7969V26H0.826172V1.82812H6.65332V21.5176ZM29.1152 26C28.916 25.6348 28.7389 25.098 28.584 24.3896C27.5547 25.6846 26.1159 26.332 24.2676 26.332C22.5742 26.332 21.1354 25.8229 19.9512 24.8047C18.7669 23.7754 18.1748 22.486 18.1748 20.9365C18.1748 18.9886 18.8942 17.5166 20.333 16.5205C21.7718 15.5244 23.8636 15.0264 26.6084 15.0264H28.335V14.0801C28.335 12.431 27.6211 11.6064 26.1934 11.6064C24.8652 11.6064 24.2012 12.2594 24.2012 13.5654H18.6064C18.6064 11.8278 19.3424 10.4167 20.8145 9.33203C22.2975 8.2474 24.1846 7.70508 26.4756 7.70508C28.7666 7.70508 30.5762 8.264 31.9043 9.38184C33.2324 10.4997 33.9131 12.0326 33.9463 13.9805V21.9326C33.9684 23.5817 34.223 24.8434 34.71 25.7178V26H29.1152ZM25.6123 22.3477C26.3096 22.3477 26.8851 22.1982 27.3389 21.8994C27.8037 21.6006 28.1357 21.263 28.335 20.8867V18.0146H26.708C24.7601 18.0146 23.7861 18.889 23.7861 20.6377C23.7861 21.1468 23.9577 21.5618 24.3008 21.8828C24.6439 22.1927 25.0811 22.3477 25.6123 22.3477ZM42.1973 8.03711L42.3799 10.1455C43.6195 8.51855 45.3294 7.70508 47.5098 7.70508C49.3802 7.70508 50.7747 8.264 51.6934 9.38184C52.623 10.4997 53.1045 12.182 53.1377 14.4287V26H47.5264V14.6611C47.5264 13.7536 47.3438 13.0895 46.9785 12.6689C46.6133 12.2373 45.9492 12.0215 44.9863 12.0215C43.8906 12.0215 43.0771 12.4531 42.5459 13.3164V26H36.9512V8.03711H42.1973ZM55.5947 16.8857C55.5947 15.0706 55.8936 13.4658 56.4912 12.0713C57.0889 10.6768 57.9466 9.60319 59.0645 8.85059C60.1823 8.08691 61.4827 7.70508 62.9658 7.70508C64.8363 7.70508 66.2972 8.33594 67.3486 9.59766L67.5479 8.03711H72.6279V25.3193C72.6279 26.902 72.2572 28.2744 71.5156 29.4365C70.7852 30.6097 69.7227 31.5062 68.3281 32.126C66.9336 32.7568 65.3177 33.0723 63.4805 33.0723C62.1634 33.0723 60.8851 32.8232 59.6455 32.3252C58.417 31.8271 57.4762 31.1797 56.8232 30.3828L59.1641 27.0957C60.2044 28.3242 61.5768 28.9385 63.2812 28.9385C65.7604 28.9385 67 27.6657 67 25.1201V24.5557C65.9264 25.7399 64.5706 26.332 62.9326 26.332C60.7412 26.332 58.9704 25.4964 57.6201 23.8252C56.2699 22.1429 55.5947 19.8962 55.5947 17.085V16.8857ZM61.2061 17.2344C61.2061 18.7064 61.4827 19.874 62.0361 20.7373C62.5895 21.5895 63.3643 22.0156 64.3604 22.0156C65.5667 22.0156 66.4466 21.6117 67 20.8037V13.25C66.4577 12.431 65.5889 12.0215 64.3936 12.0215C63.3975 12.0215 62.6172 12.4697 62.0527 13.3662C61.4883 14.2516 61.2061 15.541 61.2061 17.2344ZM86.5068 24.0576C85.3226 25.5739 83.7233 26.332 81.709 26.332C79.7389 26.332 78.2448 25.762 77.2266 24.6221C76.2194 23.471 75.7158 21.8219 75.7158 19.6748V8.03711H81.3105V19.708C81.3105 21.2464 82.0576 22.0156 83.5518 22.0156C84.8356 22.0156 85.7487 21.5563 86.291 20.6377V8.03711H91.9189V26H86.6729L86.5068 24.0576ZM105.117 26C104.918 25.6348 104.741 25.098 104.586 24.3896C103.557 25.6846 102.118 26.332 100.27 26.332C98.5762 26.332 97.1374 25.8229 95.9531 24.8047C94.7689 23.7754 94.1768 22.486 94.1768 20.9365C94.1768 18.9886 94.8962 17.5166 96.335 16.5205C97.7738 15.5244 99.8656 15.0264 102.61 15.0264H104.337V14.0801C104.337 12.431 103.623 11.6064 102.195 11.6064C100.867 11.6064 100.203 12.2594 100.203 13.5654H94.6084C94.6084 11.8278 95.3444 10.4167 96.8164 9.33203C98.2995 8.2474 100.187 7.70508 102.478 7.70508C104.769 7.70508 106.578 8.264 107.906 9.38184C109.234 10.4997 109.915 12.0326 109.948 13.9805V21.9326C109.97 23.5817 110.225 24.8434 110.712 25.7178V26H105.117ZM101.614 22.3477C102.312 22.3477 102.887 22.1982 103.341 21.8994C103.806 21.6006 104.138 21.263 104.337 20.8867V18.0146H102.71C100.762 18.0146 99.7881 18.889 99.7881 20.6377C99.7881 21.1468 99.9596 21.5618 100.303 21.8828C100.646 22.1927 101.083 22.3477 101.614 22.3477ZM112.405 16.8857C112.405 15.0706 112.704 13.4658 113.302 12.0713C113.899 10.6768 114.757 9.60319 115.875 8.85059C116.993 8.08691 118.293 7.70508 119.776 7.70508C121.647 7.70508 123.108 8.33594 124.159 9.59766L124.358 8.03711H129.438V25.3193C129.438 26.902 129.068 28.2744 128.326 29.4365C127.596 30.6097 126.533 31.5062 125.139 32.126C123.744 32.7568 122.128 33.0723 120.291 33.0723C118.974 33.0723 117.696 32.8232 116.456 32.3252C115.228 31.8271 114.287 31.1797 113.634 30.3828L115.975 27.0957C117.015 28.3242 118.387 28.9385 120.092 28.9385C122.571 28.9385 123.811 27.6657 123.811 25.1201V24.5557C122.737 25.7399 121.381 26.332 119.743 26.332C117.552 26.332 115.781 25.4964 114.431 23.8252C113.08 22.1429 112.405 19.8962 112.405 17.085V16.8857ZM118.017 17.2344C118.017 18.7064 118.293 19.874 118.847 20.7373C119.4 21.5895 120.175 22.0156 121.171 22.0156C122.377 22.0156 123.257 21.6117 123.811 20.8037V13.25C123.268 12.431 122.399 12.0215 121.204 12.0215C120.208 12.0215 119.428 12.4697 118.863 13.3662C118.299 14.2516 118.017 15.541 118.017 17.2344ZM141.309 26.332C138.553 26.332 136.323 25.513 134.618 23.875C132.914 22.2259 132.062 20.0843 132.062 17.4502V16.9854C132.062 15.1481 132.399 13.5267 133.074 12.1211C133.76 10.7155 134.757 9.63086 136.062 8.86719C137.368 8.09245 138.918 7.70508 140.711 7.70508C143.234 7.70508 145.227 8.49089 146.688 10.0625C148.148 11.623 148.879 13.8034 148.879 16.6035V18.7783H137.756C137.955 19.7855 138.392 20.5768 139.067 21.1523C139.743 21.7279 140.617 22.0156 141.69 22.0156C143.461 22.0156 144.845 21.3958 145.841 20.1562L148.397 23.1777C147.7 24.1406 146.71 24.9098 145.426 25.4854C144.153 26.0498 142.781 26.332 141.309 26.332ZM140.678 12.0215C139.04 12.0215 138.066 13.1061 137.756 15.2754H143.4V14.8438C143.423 13.9473 143.196 13.2555 142.72 12.7686C142.244 12.2705 141.563 12.0215 140.678 12.0215ZM160.55 20.9531C160.55 20.4772 160.301 20.0954 159.803 19.8076C159.305 19.5199 158.358 19.221 156.964 18.9111C155.569 18.6012 154.418 18.1973 153.511 17.6992C152.603 17.1901 151.911 16.5758 151.436 15.8564C150.96 15.137 150.722 14.3125 150.722 13.3828C150.722 11.7337 151.402 10.3779 152.764 9.31543C154.125 8.24186 155.907 7.70508 158.109 7.70508C160.478 7.70508 162.382 8.24186 163.82 9.31543C165.259 10.389 165.979 11.8001 165.979 13.5488H160.367C160.367 12.11 159.609 11.3906 158.093 11.3906C157.506 11.3906 157.014 11.5566 156.615 11.8887C156.217 12.2096 156.018 12.6136 156.018 13.1006C156.018 13.5986 156.261 14.0026 156.748 14.3125C157.235 14.6224 158.01 14.877 159.072 15.0762C160.146 15.2754 161.087 15.5133 161.895 15.79C164.595 16.7197 165.945 18.3854 165.945 20.7871C165.945 22.4251 165.215 23.7588 163.754 24.7881C162.304 25.8174 160.423 26.332 158.109 26.332C156.571 26.332 155.199 26.0553 153.992 25.502C152.786 24.9486 151.845 24.196 151.17 23.2441C150.495 22.2923 150.157 21.2907 150.157 20.2393H155.387C155.409 21.0693 155.686 21.6781 156.217 22.0654C156.748 22.4417 157.429 22.6299 158.259 22.6299C159.022 22.6299 159.592 22.4749 159.969 22.165C160.356 21.8551 160.55 21.4512 160.55 20.9531ZM187.162 26C186.963 25.6348 186.786 25.098 186.631 24.3896C185.602 25.6846 184.163 26.332 182.314 26.332C180.621 26.332 179.182 25.8229 177.998 24.8047C176.814 23.7754 176.222 22.486 176.222 20.9365C176.222 18.9886 176.941 17.5166 178.38 16.5205C179.819 15.5244 181.91 15.0264 184.655 15.0264H186.382V14.0801C186.382 12.431 185.668 11.6064 184.24 11.6064C182.912 11.6064 182.248 12.2594 182.248 13.5654H176.653C176.653 11.8278 177.389 10.4167 178.861 9.33203C180.344 8.2474 182.231 7.70508 184.522 7.70508C186.813 7.70508 188.623 8.264 189.951 9.38184C191.279 10.4997 191.96 12.0326 191.993 13.9805V21.9326C192.015 23.5817 192.27 24.8434 192.757 25.7178V26H187.162ZM183.659 22.3477C184.356 22.3477 184.932 22.1982 185.386 21.8994C185.851 21.6006 186.183 21.263 186.382 20.8867V18.0146H184.755C182.807 18.0146 181.833 18.889 181.833 20.6377C181.833 21.1468 182.005 21.5618 182.348 21.8828C182.691 22.1927 183.128 22.3477 183.659 22.3477ZM200.244 8.03711L200.427 10.1455C201.666 8.51855 203.376 7.70508 205.557 7.70508C207.427 7.70508 208.822 8.264 209.74 9.38184C210.67 10.4997 211.151 12.182 211.185 14.4287V26H205.573V14.6611C205.573 13.7536 205.391 13.0895 205.025 12.6689C204.66 12.2373 203.996 12.0215 203.033 12.0215C201.938 12.0215 201.124 12.4531 200.593 13.3164V26H194.998V8.03711H200.244ZM213.592 16.8857C213.592 14.0413 214.206 11.8001 215.435 10.1621C216.663 8.52409 218.379 7.70508 220.581 7.70508C222.186 7.70508 223.536 8.33594 224.632 9.59766V0.5H230.243V26H225.213L224.931 24.0742C223.78 25.5794 222.319 26.332 220.548 26.332C218.412 26.332 216.718 25.513 215.468 23.875C214.217 22.237 213.592 19.9072 213.592 16.8857ZM219.187 17.2344C219.187 20.4219 220.116 22.0156 221.976 22.0156C223.215 22.0156 224.101 21.4954 224.632 20.4551V13.6152C224.123 12.5527 223.248 12.0215 222.009 12.0215C220.282 12.0215 219.347 13.416 219.203 16.2051L219.187 17.2344ZM260.126 6.32715H252.871V26H247.044V6.32715H239.922V1.82812H260.126V6.32715ZM258.184 16.8525C258.184 15.0596 258.532 13.4658 259.229 12.0713C259.927 10.6657 260.928 9.58659 262.234 8.83398C263.54 8.08138 265.073 7.70508 266.833 7.70508C269.522 7.70508 271.642 8.54069 273.191 10.2119C274.741 11.8721 275.516 14.1354 275.516 17.002V17.2012C275.516 20.0013 274.735 22.2259 273.175 23.875C271.625 25.513 269.522 26.332 266.866 26.332C264.31 26.332 262.257 25.5684 260.707 24.041C259.158 22.5026 258.322 20.4219 258.2 17.7988L258.184 16.8525ZM263.778 17.2012C263.778 18.8613 264.038 20.0788 264.559 20.8535C265.079 21.6283 265.848 22.0156 266.866 22.0156C268.858 22.0156 269.877 20.4827 269.921 17.417V16.8525C269.921 13.6318 268.892 12.0215 266.833 12.0215C264.963 12.0215 263.95 13.4105 263.795 16.1885L263.778 17.2012ZM277.275 16.8525C277.275 15.0596 277.624 13.4658 278.321 12.0713C279.019 10.6657 280.02 9.58659 281.326 8.83398C282.632 8.08138 284.165 7.70508 285.925 7.70508C288.614 7.70508 290.734 8.54069 292.283 10.2119C293.833 11.8721 294.607 14.1354 294.607 17.002V17.2012C294.607 20.0013 293.827 22.2259 292.267 23.875C290.717 25.513 288.614 26.332 285.958 26.332C283.401 26.332 281.348 25.5684 279.799 24.041C278.249 22.5026 277.414 20.4219 277.292 17.7988L277.275 16.8525ZM282.87 17.2012C282.87 18.8613 283.13 20.0788 283.65 20.8535C284.171 21.6283 284.94 22.0156 285.958 22.0156C287.95 22.0156 288.968 20.4827 289.013 17.417V16.8525C289.013 13.6318 287.983 12.0215 285.925 12.0215C284.054 12.0215 283.042 13.4105 282.887 16.1885L282.87 17.2012ZM302.975 26H297.363V0.5H302.975V26ZM315.841 20.9531C315.841 20.4772 315.592 20.0954 315.094 19.8076C314.596 19.5199 313.649 19.221 312.255 18.9111C310.86 18.6012 309.709 18.1973 308.802 17.6992C307.894 17.1901 307.202 16.5758 306.727 15.8564C306.251 15.137 306.013 14.3125 306.013 13.3828C306.013 11.7337 306.693 10.3779 308.055 9.31543C309.416 8.24186 311.198 7.70508 313.4 7.70508C315.769 7.70508 317.673 8.24186 319.111 9.31543C320.55 10.389 321.27 11.8001 321.27 13.5488H315.658C315.658 12.11 314.9 11.3906 313.384 11.3906C312.797 11.3906 312.305 11.5566 311.906 11.8887C311.508 12.2096 311.309 12.6136 311.309 13.1006C311.309 13.5986 311.552 14.0026 312.039 14.3125C312.526 14.6224 313.301 14.877 314.363 15.0762C315.437 15.2754 316.378 15.5133 317.186 15.79C319.886 16.7197 321.236 18.3854 321.236 20.7871C321.236 22.4251 320.506 23.7588 319.045 24.7881C317.595 25.8174 315.714 26.332 313.4 26.332C311.862 26.332 310.49 26.0553 309.283 25.502C308.077 24.9486 307.136 24.196 306.461 23.2441C305.786 22.2923 305.448 21.2907 305.448 20.2393H310.678C310.7 21.0693 310.977 21.6781 311.508 22.0654C312.039 22.4417 312.72 22.6299 313.55 22.6299C314.313 22.6299 314.883 22.4749 315.26 22.165C315.647 21.8551 315.841 21.4512 315.841 20.9531ZM327.346 20.5713C328.231 20.5713 328.967 20.8369 329.554 21.3682C330.14 21.8883 330.434 22.5579 330.434 23.377C330.434 24.196 330.14 24.8711 329.554 25.4023C328.967 25.9225 328.231 26.1826 327.346 26.1826C326.449 26.1826 325.708 25.917 325.121 25.3857C324.546 24.8545 324.258 24.1849 324.258 23.377C324.258 22.569 324.546 21.8994 325.121 21.3682C325.708 20.8369 326.449 20.5713 327.346 20.5713ZM327.346 7.32324C328.231 7.32324 328.967 7.58887 329.554 8.12012C330.14 8.6403 330.434 9.3099 330.434 10.1289C330.434 10.9479 330.14 11.623 329.554 12.1543C328.967 12.6745 328.231 12.9346 327.346 12.9346C326.449 12.9346 325.708 12.6689 325.121 12.1377C324.546 11.6064 324.258 10.9368 324.258 10.1289C324.258 9.32096 324.546 8.65137 325.121 8.12012C325.708 7.58887 326.449 7.32324 327.346 7.32324Z" fill="#95CA3E"/>
</svg>
