<svg id="Capa_1" data-name="Capa 1" xmlns="http://www.w3.org/2000/svg" viewBox="0 0 1440 202.13"><defs><style>.cls-1{fill:#000419;fill-rule:evenodd;}</style></defs><title>tierra06</title><path class="cls-1" d="M-175.65,371.64c.7,2.12,1.2,3.73,1.9,5.94,1,3.06.41,3.63,3.38,4.8,12.22,4.81,8.54,5.68,20.13-4.32,2-1.73,6.5-6,8.35-7.05,1.53-3.39,2-8.26,2.72-12.2,2.91-15.24,3.6-11.93-3.08-21.89-1.35-2-5.1-7.26-5.7-9h-15.83c-1.33,2.08-19.61,15.68-20,16.86S-176.58,367.3-175.65,371.64Z" transform="translate(274.36 -309.4)"/><path class="cls-1" d="M-65.82,435.49c3.37,1.08,14.87,8.5,16.8,8.18,1.61-.27,11.85-9,14.66-10.26V388.83c-2.21-.44-4.47-.89-6.69-1.37-3.14-.67-4,.5-6.24,1.52-3.13,1.42-7.42,3.48-10.58,5.18-1.62.86-17.56,8.47-18.26,9.33-.89,1.08-.21,1.23-1.55,2.61-.09,2.27-3.16,6.9-3,8.83.08,1.07,7,13.22,8.22,15.52C-70.7,433.76-69,433.52-65.82,435.49Z" transform="translate(274.36 -309.4)"/><path class="cls-1" d="M-100.88,464.54a3.45,3.45,0,0,1,.67-.71l8.24-9.07c1.31-1.61,7.87-9,8.91-9.64,1.09-2.42,9-9.79,9.32-11s-8.38-16.12-9.07-16.83L-102.68,419c-9.79.22-8.55,1-15.63,4.88l-7.68,3.75c-.39,2.77.82,11.55,1,15,.66,10.5-.13,8.42,4.15,11.94l13.49,10.7C-105.35,466.16-103,464.32-100.88,464.54Z" transform="translate(274.36 -309.4)"/><path class="cls-1" d="M-156.7,393.59l.41,1.46c1.08.19,2.86,6,3.42,7.53,2.16,6,1.82,4.15,3.17,5.82.63.78.63,1.82,1.25,2.58l.21.21.21.19c1.71,1.68.18,1,2.05,2.05l4.8,2.51c6,2.9,9.45,6.91,15.19,6.73a1.46,1.46,0,0,0,.18-.22c0-.05.14-.16.18-.22l5.52-3.22a9.41,9.41,0,0,0,1.67-.65,3.82,3.82,0,0,1,1.68-.59,6.9,6.9,0,0,0,3.29-1.33c.62-5.44-.07-14.18-.37-19.87-.27-5.07-.27-14.08-1.16-18.62-3.75-1.37-9.24-2.54-13.32-3.63-2.48-.66-10.89-3.76-12.79-2.46l-13.21,11.73C-160.39,389.1-158.75,385.78-156.7,393.59Z" transform="translate(274.36 -309.4)"/><path class="cls-1" d="M-224.86,418.43c1.89-.25,6.93-.15,9.27-.19,4.85-.09,4.53-.76,6.77-3.28,1.6-1.82,3.32-3.22,4.92-5,1.78-2,2.63-2.92,5-5.31,1.77-1.76,3.12-3.35,4.79-5.2s3.54-3.39,5.12-5.23a60.24,60.24,0,0,1,4.87-5.09c1-.91,4.33-4.38,4.88-5.55l-30.65-5.63c-3.29-.29-6.83-1.44-9.77-1.64-2-.14-21.58,9.15-23.6,10.72.05,2.31,4.69,15.59,5.76,18.68,1.75,5.11.6,4.17,5,7.25C-230.54,414.27-226.26,416.44-224.86,418.43Z" transform="translate(274.36 -309.4)"/><path class="cls-1" d="M-207.79,340.39c-8.11-.09-15.91-.41-24-.87-3.55-.2-7.89-.11-11.7-.49-5.84-.59-4.53.66-6.42,2.68l-7.15,8.58c-4.09,5.07-4.08,4.77-2.91,8,2.12,5.94,4.4,12.7,6.3,18.54,1.12,3.47.52,2.85,5.83,6.57,4.23,3,3.71,2.38,8.3.06,5.21-2.64,11.08-5.23,16.78-8.12,2.25-1.13,2.91-4.44,4.32-7.93Z" transform="translate(274.36 -309.4)"/><path class="cls-1" d="M-239.63,464.27l16.84-7c.31-2.56-1.38-23.7-1.74-29.24-.17-2.59.26-7.49-1.36-9.07-2.15-.95-7.49-5-10.13-6.55-1.11.44-20.75,20-24.67,23.93-1.17,1.18-2.74,2.44-3.71,3.58-1.67,2,.44,8.3,1,11.21.55,2.62,1.4,10,2.93,11.33.93.79,8.12,3.33,9.77,4C-246.65,468.08-246.34,467.1-239.63,464.27Z" transform="translate(274.36 -309.4)"/><path class="cls-1" d="M-194.77,427.38l7.26,3.82a10.94,10.94,0,0,0,4,1.65c1.47.43,2.17,1.26,3.94,1.62l3.35-3.76c1.11-1.66,2.74-2.9,4.28-4.53s2.43-2.88,4-4.45l6.84-6.21c1.61-1.4,1.15-1.33,2.51-1.71v-1.52l1.28-.65c.73-.53.49.13.84-1,.29-1-3-12.92-3.27-15.56-.83-8.11,1.19-6.39-11.19-11.41-5.26-2.13-7.73,2-9.74,4.27-3.1,3.47-4,3.85-7.5,7.84L-206.44,415c-1.6,1.43-2.56,2.15-3.39,3.78Z" transform="translate(274.36 -309.4)"/><path class="cls-1" d="M-91.41,373.06l14.66,28.49c2.3-.35,13.43-6.17,16.07-7.47l16.11-7.74c-.39-2.35-12.27-22.59-15-27.75-.81-1.52-1.62-3.08-2.56-4.75L-65,349.25c-2.71.08-15,5.48-18.57,6.87-5,2-3.91,1.88-5.84,6.9C-91.76,369.05-92.67,369.13-91.41,373.06Z" transform="translate(274.36 -309.4)"/><path class="cls-1" d="M-274.36,391.46v45.17l8,3.17c1.86-1.25,6.38-6.22,8.49-8.32l16.62-16.73c4.52-4.64,4.4-2.22,1.61-11.16-1.33-4.23-2.55-8.26-4-12.48-.92-2.75-.68-3.78-3-5.37-1.45-1-3.28-2.52-4.93-3.57C-254,380.6-258.81,383.9-263,386Z" transform="translate(274.36 -309.4)"/><path class="cls-1" d="M-93.07,368.84c.46-2.39,2-5.36,2.9-7.79,1.7-4.68,2.1-3.12-1.38-6.57l-13.52-13.34c-1.41-1.36-1.53-1.56-3.81-1.11-3,.58-5.81,1.19-8.91,1.86s-15.87,3-17.52,4.09c-.86,1.55-1.46,7.27-1.85,9.56l-1.65,9.15c0,.08-.09.2-.12.27l-.28.52-.22,4.31c7.64,2,16.38,4.92,23.87,6.46,2.44.51,9.58-2.15,12.28-3C-98.84,371.9-94.63,371.27-93.07,368.84Z" transform="translate(274.36 -309.4)"/><path class="cls-1" d="M-228.3,498.68c3.68-.62,11.59,1.75,16.05,1.44,1.71-1.87,2.16-6.44,4.07-7.89.08-1.07,4.32-12,5.59-13.37,0-1.69,2.07-5.17,2.58-7.13l-13.55-8.39c-8.41-3.12-5.08-6.22-13-2.82L-240.16,466l-6.07,2.73c-.13,1.46,7.86,27.74,8.69,28.35a17.2,17.2,0,0,0,4.59.73c.8.1,1.62.16,2.39.26l2,.51A1.61,1.61,0,0,1-228.3,498.68Z" transform="translate(274.36 -309.4)"/><path class="cls-1" d="M-274.36,474.19V504.7c4.7,1.38,17.9,6.72,21.09,6.83.22-.11,13-12.44,13.36-13,1.07-1.81-4.43-17.45-5.31-20.25-3.8-12.1-1.33-8.59-13.09-13.43-4.37-1.8-2.94-.94-8.43,3.38C-268.25,469.42-272.95,473.66-274.36,474.19Z" transform="translate(274.36 -309.4)"/><path class="cls-1" d="M-209.79,376.69c2.42-.22,14.2,2.26,17.58,2.84,5.93,1,12.07,2.81,18,2.11-.41-3.94-6.08-18.37-6-21l-1-1.92c-.22-.66-.49-1.56-.74-2.39l-2.75-9.05c-.73-2.38-.75-2.28-3-3.11-3-1.09-5.8-2-8.81-3.08-2.64-.93-7.22-3.45-9.16-.87-.54.71-13.2,32.21-13.69,34.44l9.35,1.92A2.15,2.15,0,0,1-209.79,376.69Z" transform="translate(274.36 -309.4)"/><path class="cls-1" d="M-111,413.45v.77l.77,1.77c4.55.36,22.28-1.13,27.75-1.65.79-1,4.55-9.66,4.7-10.95.18-1.56-4-8.77-4.91-10.58L-93.35,372c-2,0-17.46,4.83-19.84,5.94C-113.95,384.35-111,405.3-111,413.45Z" transform="translate(274.36 -309.4)"/><path class="cls-1" d="M-212.35,462.76c1.66.36,6.51,3.54,8.32,4.59,3.24,1.87,5,4.06,9,1.67l13.61-5c.82-2.95.9-23.16-.25-25s-2.14-2-3.62-3.12a7.92,7.92,0,0,1-1.05-1c-1.72-1.75.46.32-2.76-1.72l-8.18-5.06-.82-.39c-.49-.67-8.69-5.32-10.31-6.31-4.24-2.59-9.64-1.7-14.95-1.8-.34,2.13,1.86,35.45,2.47,37.47C-218.57,459-213.59,460.87-212.35,462.76Z" transform="translate(274.36 -309.4)"/><path class="cls-1" d="M-34.36,387.6V337.66l-24.23,1c-2.11,4.32-5.59,8.19-4.77,10.54l9.27,16.5c2.56,4.55,4.9,8.81,7.4,13.3.69,1.24,3.06,5.86,3.86,6.54C-41.55,386.6-36.4,387.3-34.36,387.6Z" transform="translate(274.36 -309.4)"/><path class="cls-1" d="M-62.65,328h-40.81c-1.86,12.69-5.21,7.92,4.6,17.34,2.29,2.19,4.24,4.16,6.57,6.47,5.06,5,4.22,4.62,8.19,3.1,2.65-1,18.11-6.84,18.9-7.56,1.6-1.45.64-2,3-5C-58.12,337.27-61.76,332.06-62.65,328Z" transform="translate(274.36 -309.4)"/><path class="cls-1" d="M-247,328h-27.4v20.66c3.81,1.22,9.59,5.46,13.24,5.58l10.42-13.34c1.35-1.7,2-1.57,2.53-3.63A90.27,90.27,0,0,0-247,328Z" transform="translate(274.36 -309.4)"/><path class="cls-1" d="M-274.36,349.58v40.59c1-.28,17.05-8.14,19.37-9.87a4.9,4.9,0,0,0,.74-.59c-.39-2.34-7.23-22.73-7.71-23.46C-263.12,354.47-273.1,349.85-274.36,349.58Z" transform="translate(274.36 -309.4)"/><path class="cls-1" d="M-105,328h-41c.63,1.55,9.44,15.18,10.43,15.9,2.47.13,25-4.71,28.23-5.7Z" transform="translate(274.36 -309.4)"/><path class="cls-1" d="M-205.54,328h-40.25l-1.42,9.92,32.65,1C-201.83,339.36-204.74,340.49-205.54,328Z" transform="translate(274.36 -309.4)"/><path class="cls-1" d="M-166.25,328h-38.13l1.39,9.37,16.14,5.6c2.73.82,3.13-.33,4.74-1.7C-179.41,338.93-166.87,329.08-166.25,328Z" transform="translate(274.36 -309.4)"/><path class="cls-1" d="M-274.36,437.79v34.86c1.52-.71,6.59-5.21,8.11-6.64,4.66-4.37,4.32-1.75,2.69-9.66-.84-4-1.66-8.08-2.51-12.1-.68-3.24-.25-3.09-3-4.3A31.57,31.57,0,0,0-274.36,437.79Z" transform="translate(274.36 -309.4)"/><path class="cls-1" d="M-127,448.72c-.65-6.93-.91-6.15-2-11.17l-1.11-11.06c-1.07,0-.53.18-1.56-.24l-8-4.7a89.82,89.82,0,0,0-8.95-5.15,2.28,2.28,0,0,0-2.66-1.1c-2,.47-5.42,3.87-7.06,5.5-.5.49-.95.75-1.25,1L-173,435.42c-.95.78-1.72,1-2.39,1.83s-.26.63-.93,1.31c-.46.46-.53.16-1,1a13.55,13.55,0,0,0-.45,3.69c-.15,2.11-.77,5.11-.86,7.37.54,3.91-1.56,10.6-.61,14.56l14,8.93c4,2.46,3.46,1.81,7.18-.75l27.3-18.3C-128.41,453.57-125.68,452.76-127,448.72Z" transform="translate(274.36 -309.4)"/><path class="cls-1" d="M-34.36,336.19V328H-61.43c.31,2.26,1.87,7.47,3,8.75.47.21-.53,0,1.08.32l2.31,0c1,0,2-.07,3.07-.09C-47.68,336.86-37.77,336.76-34.36,336.19Z" transform="translate(274.36 -309.4)"/><path class="cls-1" d="M304.35,371.64c.7,2.12,1.2,3.73,1.9,5.94,1,3.06.41,3.63,3.38,4.8,12.22,4.81,8.54,5.68,20.13-4.32,2-1.73,6.5-6,8.35-7.05,1.53-3.39,2-8.26,2.72-12.2,2.91-15.24,3.6-11.93-3.08-21.89-1.35-2-5.1-7.26-5.7-9H316.22c-1.33,2.08-19.61,15.68-20,16.86S303.42,367.3,304.35,371.64Z" transform="translate(274.36 -309.4)"/><path class="cls-1" d="M414.18,435.49c3.37,1.08,14.87,8.5,16.8,8.18,1.61-.27,11.85-9,14.66-10.26V388.83c-2.21-.44-4.47-.89-6.69-1.37-3.14-.67-4,.5-6.24,1.52-3.13,1.42-7.42,3.48-10.58,5.18-1.62.86-17.56,8.47-18.26,9.33-.89,1.08-.21,1.23-1.55,2.61-.09,2.27-3.16,6.9-3,8.83.08,1.07,7,13.22,8.22,15.52C409.3,433.76,411,433.52,414.18,435.49Z" transform="translate(274.36 -309.4)"/><path class="cls-1" d="M379.12,464.54a3.45,3.45,0,0,1,.67-.71l8.24-9.07c1.31-1.61,7.87-9,8.91-9.64,1.09-2.42,9-9.79,9.32-11s-8.38-16.12-9.07-16.83L377.32,419c-9.79.22-8.55,1-15.63,4.88L354,427.64c-.38,2.77.82,11.55,1,15,.66,10.5-.13,8.42,4.15,11.94l13.49,10.7C374.65,466.16,377,464.32,379.12,464.54Z" transform="translate(274.36 -309.4)"/><path class="cls-1" d="M323.3,393.59l.41,1.46c1.08.19,2.86,6,3.42,7.53,2.16,6,1.82,4.15,3.17,5.82.63.78.63,1.82,1.25,2.58l.21.21.21.19c1.71,1.68.18,1,2,2.05l4.8,2.51c6,2.9,9.45,6.91,15.19,6.73a1.46,1.46,0,0,0,.18-.22c0-.05.14-.16.18-.22l5.52-3.22a9.41,9.41,0,0,0,1.67-.65,3.82,3.82,0,0,1,1.68-.59,6.9,6.9,0,0,0,3.29-1.33c.62-5.44-.07-14.18-.37-19.87-.27-5.07-.27-14.08-1.16-18.62-3.75-1.37-9.24-2.54-13.32-3.63-2.48-.66-10.89-3.76-12.79-2.46l-13.21,11.73C319.61,389.1,321.25,385.78,323.3,393.59Z" transform="translate(274.36 -309.4)"/><path class="cls-1" d="M255.14,418.43c1.89-.25,6.93-.15,9.27-.19,4.85-.09,4.53-.76,6.77-3.28,1.6-1.82,3.32-3.22,4.93-5,1.77-2,2.62-2.92,5-5.31,1.77-1.76,3.12-3.35,4.79-5.2s3.54-3.39,5.12-5.23a60.24,60.24,0,0,1,4.87-5.09c1-.91,4.33-4.38,4.88-5.55l-30.65-5.63c-3.29-.29-6.83-1.44-9.77-1.64-2-.14-21.58,9.15-23.6,10.72.05,2.31,4.69,15.59,5.76,18.68,1.75,5.11.6,4.17,5,7.25C249.46,414.27,253.74,416.44,255.14,418.43Z" transform="translate(274.36 -309.4)"/><path class="cls-1" d="M272.21,340.39c-8.11-.09-15.91-.41-23.95-.87-3.55-.2-7.89-.11-11.7-.49-5.84-.59-4.53.66-6.42,2.68L223,350.29c-4.09,5.07-4.08,4.77-2.91,8,2.12,5.94,4.4,12.7,6.3,18.54,1.12,3.47.52,2.85,5.83,6.57,4.23,3,3.71,2.38,8.3.06,5.21-2.64,11.08-5.23,16.78-8.12,2.25-1.13,2.91-4.44,4.32-7.93Z" transform="translate(274.36 -309.4)"/><path class="cls-1" d="M240.37,464.27l16.84-7c.31-2.56-1.38-23.7-1.74-29.24-.17-2.59.26-7.49-1.36-9.07-2.15-.95-7.49-5-10.13-6.55-1.11.44-20.75,20-24.67,23.93-1.17,1.18-2.74,2.44-3.71,3.58-1.67,2,.44,8.3,1.05,11.21.55,2.62,1.4,10,2.93,11.33.93.79,8.12,3.33,9.77,4C233.35,468.08,233.66,467.1,240.37,464.27Z" transform="translate(274.36 -309.4)"/><path class="cls-1" d="M285.23,427.38l7.26,3.82a10.94,10.94,0,0,0,4,1.65c1.47.43,2.17,1.26,3.94,1.62l3.35-3.76c1.11-1.66,2.74-2.9,4.28-4.53s2.43-2.88,4-4.45l6.84-6.21c1.61-1.4,1.15-1.33,2.51-1.71v-1.52l1.28-.65c.73-.53.49.13.84-1,.29-1-3-12.92-3.27-15.56-.83-8.11,1.19-6.39-11.19-11.41-5.26-2.13-7.73,2-9.74,4.27-3.1,3.47-4,3.85-7.5,7.84L273.56,415c-1.6,1.43-2.56,2.15-3.39,3.78Z" transform="translate(274.36 -309.4)"/><path class="cls-1" d="M388.59,373.06l14.66,28.49c2.3-.35,13.43-6.17,16.07-7.47l16.11-7.74c-.39-2.35-12.27-22.59-15-27.75-.81-1.52-1.62-3.08-2.56-4.75L415,349.25c-2.71.08-15.05,5.48-18.57,6.87-5,2-3.91,1.88-5.84,6.9C388.24,369.05,387.33,369.13,388.59,373.06Z" transform="translate(274.36 -309.4)"/><path class="cls-1" d="M205.64,391.46v45.17l8,3.17c1.86-1.25,6.38-6.22,8.49-8.32l16.62-16.73c4.52-4.64,4.4-2.22,1.61-11.16-1.33-4.23-2.55-8.26-4-12.48-.92-2.75-.68-3.78-3-5.37-1.45-1-3.28-2.52-4.93-3.57C226,380.6,221.19,383.9,217,386Z" transform="translate(274.36 -309.4)"/><path class="cls-1" d="M386.93,368.84c.46-2.39,2-5.36,2.9-7.79,1.7-4.68,2.1-3.12-1.38-6.57l-13.52-13.34c-1.41-1.36-1.53-1.56-3.81-1.11-2.95.58-5.81,1.19-8.91,1.86s-15.87,3-17.52,4.09c-.86,1.55-1.46,7.27-1.85,9.56l-1.65,9.15c0,.08-.09.2-.12.27l-.28.52-.22,4.31c7.64,2,16.38,4.92,23.87,6.46,2.44.51,9.58-2.15,12.28-3C381.16,371.9,385.37,371.27,386.93,368.84Z" transform="translate(274.36 -309.4)"/><path class="cls-1" d="M270.21,376.69c2.42-.22,14.2,2.26,17.58,2.84,5.93,1,12.07,2.81,18,2.11-.41-3.94-6.08-18.37-6-21l-1-1.92c-.22-.66-.49-1.56-.74-2.39l-2.75-9.05c-.73-2.38-.75-2.28-3-3.11-3-1.09-5.8-2-8.81-3.08-2.64-.93-7.22-3.45-9.16-.87-.54.71-13.2,32.21-13.69,34.44l9.35,1.92A2.15,2.15,0,0,1,270.21,376.69Z" transform="translate(274.36 -309.4)"/><path class="cls-1" d="M369,413.45v.77l.77,1.77c4.55.36,22.28-1.13,27.75-1.65.79-1,4.55-9.66,4.7-10.95.18-1.56-4-8.77-4.91-10.58L386.65,372c-2,0-17.46,4.83-19.84,5.94C366.05,384.35,369,405.3,369,413.45Z" transform="translate(274.36 -309.4)"/><path class="cls-1" d="M267.65,462.76c1.66.36,6.51,3.54,8.32,4.59,3.24,1.87,5,4.06,9,1.67l13.61-5c.82-2.95.9-23.16-.25-25s-2.14-2-3.62-3.12a7.92,7.92,0,0,1-1.05-1c-1.72-1.75.46.32-2.76-1.72l-8.18-5.06-.82-.39c-.49-.67-8.69-5.32-10.31-6.31-4.24-2.59-9.64-1.7-14.95-1.8-.34,2.13,1.86,35.45,2.47,37.47C261.43,459,266.41,460.87,267.65,462.76Z" transform="translate(274.36 -309.4)"/><path class="cls-1" d="M445.64,387.6V337.66l-24.23,1c-2.11,4.32-5.59,8.19-4.77,10.54l9.27,16.5c2.56,4.55,4.9,8.81,7.4,13.3.69,1.24,3.06,5.86,3.86,6.54C438.45,386.6,443.6,387.3,445.64,387.6Z" transform="translate(274.36 -309.4)"/><path class="cls-1" d="M417.35,328H376.54c-1.86,12.69-5.21,7.92,4.6,17.34,2.29,2.19,4.24,4.16,6.57,6.47,5.06,5,4.22,4.62,8.19,3.1,2.65-1,18.11-6.84,18.9-7.56,1.6-1.45.64-2,3-5C421.88,337.27,418.24,332.06,417.35,328Z" transform="translate(274.36 -309.4)"/><path class="cls-1" d="M233,328h-27.4v20.66c3.81,1.22,9.59,5.46,13.24,5.58l10.42-13.34c1.35-1.7,2-1.57,2.53-3.63A90.27,90.27,0,0,0,233,328Z" transform="translate(274.36 -309.4)"/><path class="cls-1" d="M205.64,349.58v40.59c1-.28,17.05-8.14,19.37-9.87a4.9,4.9,0,0,0,.74-.59c-.39-2.34-7.23-22.73-7.71-23.46C216.88,354.47,206.9,349.85,205.64,349.58Z" transform="translate(274.36 -309.4)"/><path class="cls-1" d="M375,328H334c.63,1.55,9.44,15.18,10.43,15.9,2.47.13,25-4.71,28.23-5.7Z" transform="translate(274.36 -309.4)"/><path class="cls-1" d="M274.46,328H234.21l-1.42,9.92,32.65,1C278.17,339.36,275.26,340.49,274.46,328Z" transform="translate(274.36 -309.4)"/><path class="cls-1" d="M313.75,328H275.62l1.39,9.37,16.14,5.6c2.73.82,3.13-.33,4.74-1.7C300.59,338.93,313.13,329.08,313.75,328Z" transform="translate(274.36 -309.4)"/><path class="cls-1" d="M205.64,437.79v34.86c1.52-.71,6.59-5.21,8.11-6.64,4.66-4.37,4.32-1.75,2.69-9.66-.84-4-1.66-8.08-2.51-12.1-.68-3.24-.26-3.09-3-4.3A31.57,31.57,0,0,0,205.64,437.79Z" transform="translate(274.36 -309.4)"/><path class="cls-1" d="M353,448.72c-.65-6.93-.92-6.15-2-11.17l-1.11-11.06c-1.07,0-.53.18-1.56-.24l-8-4.7a89.82,89.82,0,0,0-8.95-5.15,2.28,2.28,0,0,0-2.66-1.1c-2,.47-5.42,3.87-7.06,5.5-.5.49-.95.75-1.25,1L307,435.42c-1,.78-1.72,1-2.39,1.83s-.26.63-.93,1.31c-.46.46-.53.16-1,1a13.55,13.55,0,0,0-.45,3.69c-.15,2.11-.77,5.11-.86,7.37.54,3.91-1.56,10.6-.61,14.56l14,8.93c4,2.46,3.46,1.81,7.18-.75l27.3-18.3C351.59,453.57,354.32,452.76,353,448.72Z" transform="translate(274.36 -309.4)"/><path class="cls-1" d="M445.64,336.19V328H418.57c.31,2.26,1.87,7.47,3,8.75.47.21-.53,0,1.08.32l2.31,0c1,0,2-.07,3.07-.09C432.32,336.86,442.23,336.76,445.64,336.19Z" transform="translate(274.36 -309.4)"/><path class="cls-1" d="M784.35,371.64c.7,2.12,1.2,3.73,1.9,5.94,1,3.06.41,3.63,3.38,4.8,12.22,4.81,8.54,5.68,20.13-4.32,2-1.73,6.5-6,8.35-7.05,1.53-3.39,2-8.26,2.72-12.2,2.91-15.24,3.59-11.93-3.08-21.89-1.35-2-5.1-7.26-5.71-9H796.22c-1.33,2.08-19.61,15.68-20,16.86S783.42,367.3,784.35,371.64Z" transform="translate(274.36 -309.4)"/><path class="cls-1" d="M894.18,435.49c3.37,1.08,14.87,8.5,16.8,8.18,1.61-.27,11.85-9,14.66-10.26V388.83c-2.21-.44-4.47-.89-6.69-1.37-3.14-.67-4,.5-6.24,1.52-3.13,1.42-7.42,3.48-10.58,5.18-1.62.86-17.56,8.47-18.26,9.33-.89,1.08-.21,1.23-1.55,2.61-.09,2.27-3.16,6.9-3,8.83.08,1.07,7,13.22,8.22,15.52C889.3,433.76,891,433.52,894.18,435.49Z" transform="translate(274.36 -309.4)"/><path class="cls-1" d="M859.12,464.54a3.45,3.45,0,0,1,.67-.71l8.24-9.07c1.31-1.61,7.87-9,8.91-9.64,1.09-2.42,9-9.79,9.32-11s-8.38-16.12-9.07-16.83L857.32,419c-9.79.22-8.55,1-15.63,4.88L834,427.64c-.38,2.77.82,11.55,1,15,.66,10.5-.13,8.42,4.15,11.94l13.49,10.7C854.65,466.16,857,464.32,859.12,464.54Z" transform="translate(274.36 -309.4)"/><path class="cls-1" d="M803.3,393.59l.41,1.46c1.08.19,2.86,6,3.42,7.53,2.16,6,1.82,4.15,3.17,5.82.63.78.63,1.82,1.25,2.58.06.07.15.14.21.21l.21.19c1.71,1.68.18,1,2,2.05l4.8,2.51c6,2.9,9.45,6.91,15.19,6.73a1.46,1.46,0,0,0,.18-.22c0-.05.14-.16.18-.22l5.52-3.22a9.41,9.41,0,0,0,1.67-.65c1.31-.59.17-.23,1.68-.59a6.9,6.9,0,0,0,3.29-1.33c.62-5.44-.07-14.18-.37-19.87-.27-5.07-.27-14.08-1.16-18.62-3.75-1.37-9.24-2.54-13.32-3.63-2.48-.66-10.89-3.76-12.79-2.46l-13.21,11.73C799.61,389.1,801.25,385.78,803.3,393.59Z" transform="translate(274.36 -309.4)"/><path class="cls-1" d="M735.14,418.43c1.88-.25,6.93-.15,9.27-.19,4.85-.09,4.53-.76,6.77-3.28,1.6-1.82,3.32-3.22,4.93-5,1.77-2,2.62-2.92,5-5.31,1.77-1.76,3.12-3.35,4.79-5.2s3.54-3.39,5.12-5.23a60.24,60.24,0,0,1,4.87-5.09c1-.91,4.33-4.38,4.88-5.55l-30.65-5.63c-3.29-.29-6.83-1.44-9.77-1.64-2-.14-21.58,9.15-23.6,10.72.05,2.31,4.69,15.59,5.76,18.68,1.75,5.11.6,4.17,5,7.25C729.46,414.27,733.74,416.44,735.14,418.43Z" transform="translate(274.36 -309.4)"/><path class="cls-1" d="M752.21,340.39c-8.11-.09-15.91-.41-24-.87-3.55-.2-7.89-.11-11.7-.49-5.84-.59-4.53.66-6.42,2.68L703,350.29c-4.09,5.07-4.08,4.77-2.91,8,2.12,5.94,4.4,12.7,6.3,18.54,1.12,3.47.52,2.85,5.83,6.57,4.23,3,3.71,2.38,8.3.06,5.21-2.64,11.08-5.23,16.78-8.12,2.25-1.13,2.91-4.44,4.32-7.93Z" transform="translate(274.36 -309.4)"/><path class="cls-1" d="M720.37,464.27l16.84-7c.31-2.56-1.38-23.7-1.74-29.24-.17-2.59.26-7.49-1.36-9.07-2.15-.95-7.49-5-10.13-6.55-1.11.44-20.75,20-24.67,23.93-1.17,1.18-2.74,2.44-3.71,3.58-1.67,2,.44,8.3,1,11.21.55,2.62,1.4,10,2.93,11.33.93.79,8.12,3.33,9.77,4C713.35,468.08,713.66,467.1,720.37,464.27Z" transform="translate(274.36 -309.4)"/><path class="cls-1" d="M765.23,427.38l7.26,3.82a10.94,10.94,0,0,0,4,1.65c1.47.43,2.17,1.26,3.94,1.62l3.35-3.76c1.11-1.66,2.74-2.9,4.28-4.53s2.43-2.88,4-4.45l6.84-6.21c1.61-1.4,1.15-1.33,2.51-1.71v-1.52l1.28-.65c.73-.53.49.13.84-1,.29-1-3-12.92-3.27-15.56-.83-8.11,1.19-6.39-11.19-11.41-5.26-2.13-7.73,2-9.74,4.27-3.1,3.47-4,3.85-7.5,7.84L753.56,415c-1.6,1.43-2.56,2.15-3.39,3.78Z" transform="translate(274.36 -309.4)"/><path class="cls-1" d="M868.59,373.06l14.66,28.49c2.3-.35,13.43-6.17,16.07-7.47l16.11-7.74c-.39-2.35-12.27-22.59-15-27.75-.81-1.52-1.62-3.08-2.56-4.75L895,349.25c-2.71.08-15.05,5.48-18.57,6.87-5,2-3.91,1.88-5.84,6.9C868.24,369.05,867.33,369.13,868.59,373.06Z" transform="translate(274.36 -309.4)"/><path class="cls-1" d="M685.13,391.46v45.17l8,3.17c1.86-1.25,6.38-6.22,8.49-8.32l16.62-16.73c4.52-4.64,4.4-2.22,1.61-11.16-1.33-4.23-2.55-8.26-4-12.48-.93-2.75-.69-3.78-3-5.37-1.45-1-3.28-2.52-4.93-3.57-2.45-1.57-7.28,1.73-11.51,3.84Z" transform="translate(274.36 -309.4)"/><path class="cls-1" d="M866.93,368.84c.46-2.39,2-5.36,2.9-7.79,1.7-4.68,2.09-3.12-1.38-6.57l-13.52-13.34c-1.41-1.36-1.53-1.56-3.81-1.11-3,.58-5.81,1.19-8.91,1.86s-15.87,3-17.52,4.09c-.86,1.55-1.46,7.27-1.86,9.56l-1.64,9.15c0,.08-.09.2-.12.27l-.28.52-.22,4.31c7.64,2,16.38,4.92,23.87,6.46,2.44.51,9.58-2.15,12.28-3C861.16,371.9,865.37,371.27,866.93,368.84Z" transform="translate(274.36 -309.4)"/><path class="cls-1" d="M731.7,498.68c3.68-.62,11.59,1.75,16,1.44,1.71-1.87,2.16-6.44,4.07-7.89.08-1.07,4.32-12,5.59-13.37,0-1.69,2.07-5.17,2.58-7.13l-13.55-8.39c-8.41-3.12-5.08-6.22-13-2.82L719.84,466l-6.07,2.73c-.13,1.46,7.86,27.74,8.69,28.35a17.2,17.2,0,0,0,4.59.73c.8.1,1.62.16,2.39.26l2,.51A1.61,1.61,0,0,1,731.7,498.68Z" transform="translate(274.36 -309.4)"/><path class="cls-1" d="M685.64,474.19V504.7c4.7,1.38,17.9,6.72,21.09,6.83.22-.11,13-12.44,13.36-13,1.07-1.81-4.43-17.45-5.31-20.25-3.8-12.1-1.33-8.59-13.09-13.43-4.37-1.8-2.94-.94-8.43,3.38C691.75,469.42,687.05,473.66,685.64,474.19Z" transform="translate(274.36 -309.4)"/><path class="cls-1" d="M750.21,376.69c2.42-.22,14.2,2.26,17.58,2.84,5.93,1,12.07,2.81,18,2.11-.41-3.94-6.08-18.37-6-21l-1-1.92c-.22-.66-.49-1.56-.74-2.39l-2.75-9.05c-.73-2.38-.75-2.28-3-3.11-3-1.09-5.8-2-8.81-3.08-2.64-.93-7.22-3.45-9.16-.87-.54.71-13.2,32.21-13.69,34.44l9.35,1.92A2.15,2.15,0,0,1,750.21,376.69Z" transform="translate(274.36 -309.4)"/><path class="cls-1" d="M849,413.45v.77l.77,1.77c4.55.36,22.28-1.13,27.75-1.65.79-1,4.55-9.66,4.7-10.95.18-1.56-4-8.77-4.91-10.58L866.65,372c-2,0-17.46,4.83-19.84,5.94C846.05,384.35,849,405.3,849,413.45Z" transform="translate(274.36 -309.4)"/><path class="cls-1" d="M747.65,462.76c1.66.36,6.51,3.54,8.32,4.59,3.24,1.87,5,4.06,9,1.67l13.61-5c.82-2.95.9-23.16-.25-25s-2.14-2-3.62-3.12a7.92,7.92,0,0,1-1-1c-1.72-1.75.46.32-2.76-1.72l-8.18-5.06-.82-.39c-.49-.67-8.69-5.32-10.31-6.31-4.24-2.59-9.64-1.7-15-1.8-.34,2.13,1.86,35.45,2.47,37.47C741.43,459,746.41,460.87,747.65,462.76Z" transform="translate(274.36 -309.4)"/><path class="cls-1" d="M925.64,387.6V337.66l-24.23,1c-2.11,4.32-5.59,8.19-4.77,10.54l9.27,16.5c2.56,4.55,4.9,8.81,7.4,13.3.69,1.24,3.06,5.86,3.86,6.54C918.45,386.6,923.6,387.3,925.64,387.6Z" transform="translate(274.36 -309.4)"/><path class="cls-1" d="M897.35,328H856.54c-1.86,12.69-5.21,7.92,4.6,17.34,2.29,2.19,4.24,4.16,6.57,6.47,5.06,5,4.22,4.62,8.19,3.1,2.65-1,18.11-6.84,18.9-7.56,1.6-1.45.64-2,3-5C901.88,337.27,898.24,332.06,897.35,328Z" transform="translate(274.36 -309.4)"/><path class="cls-1" d="M713,328h-27.4v20.66c3.81,1.22,9.59,5.46,13.24,5.58l10.42-13.34c1.35-1.7,2-1.57,2.52-3.63A87.59,87.59,0,0,0,713,328Z" transform="translate(274.36 -309.4)"/><path class="cls-1" d="M685.64,349.58v40.59c1-.28,17.05-8.14,19.37-9.87a4.9,4.9,0,0,0,.74-.59c-.39-2.34-7.23-22.73-7.71-23.46C696.88,354.47,686.9,349.85,685.64,349.58Z" transform="translate(274.36 -309.4)"/><path class="cls-1" d="M855,328H814c.63,1.55,9.44,15.18,10.43,15.9,2.47.13,25-4.71,28.23-5.7Z" transform="translate(274.36 -309.4)"/><path class="cls-1" d="M754.46,328H714.21l-1.42,9.92,32.65,1C758.17,339.36,755.26,340.49,754.46,328Z" transform="translate(274.36 -309.4)"/><path class="cls-1" d="M793.75,328H755.62l1.39,9.37,16.14,5.6c2.73.82,3.13-.33,4.74-1.7C780.59,338.93,793.13,329.08,793.75,328Z" transform="translate(274.36 -309.4)"/><path class="cls-1" d="M685.64,437.79v34.86c1.53-.71,6.59-5.21,8.11-6.64,4.66-4.37,4.32-1.75,2.69-9.66q-1.26-6.06-2.51-12.1c-.68-3.24-.26-3.09-3-4.3A31.57,31.57,0,0,0,685.64,437.79Z" transform="translate(274.36 -309.4)"/><path class="cls-1" d="M833,448.72c-.65-6.93-.92-6.15-2-11.17l-1.11-11.06c-1.07,0-.53.18-1.56-.24l-8-4.7a89.82,89.82,0,0,0-9-5.15,2.28,2.28,0,0,0-2.66-1.1c-2,.47-5.42,3.87-7.06,5.5-.5.49-.95.75-1.25,1L787,435.42c-1,.78-1.72,1-2.39,1.83s-.26.63-.93,1.31c-.46.46-.53.16-1,1a13.55,13.55,0,0,0-.45,3.69c-.15,2.11-.77,5.11-.86,7.37.54,3.91-1.56,10.6-.61,14.56l14,8.93c4,2.46,3.46,1.81,7.18-.75l27.3-18.3C831.59,453.57,834.32,452.76,833,448.72Z" transform="translate(274.36 -309.4)"/><path class="cls-1" d="M925.64,336.19V328H898.57c.31,2.26,1.87,7.47,3,8.75.47.21-.53,0,1.08.32l2.31,0c1,0,2-.07,3.07-.09C912.32,336.86,922.23,336.76,925.64,336.19Z" transform="translate(274.36 -309.4)"/><path class="cls-1" d="M106.94,371.64c-.7,2.12-1.2,3.73-1.9,5.94-1,3.06-.41,3.63-3.38,4.8-12.22,4.81-8.54,5.68-20.13-4.32-2-1.73-6.5-6-8.36-7.05-1.53-3.39-2-8.26-2.71-12.2-2.91-15.24-3.6-11.93,3.08-21.89,1.34-2,5.09-7.26,5.7-9H95.07c1.33,2.08,19.61,15.68,20,16.86S107.87,367.3,106.94,371.64Z" transform="translate(274.36 -309.4)"/><path class="cls-1" d="M-2.9,435.49c-3.37,1.08-14.86,8.5-16.79,8.18-1.62-.27-11.86-9-14.67-10.26V388.83c2.22-.44,4.48-.89,6.69-1.37,3.15-.67,4,.5,6.25,1.52,3.13,1.42,7.42,3.48,10.58,5.18,1.62.86,17.56,8.47,18.26,9.33.88,1.08.2,1.23,1.54,2.61.1,2.27,3.16,6.9,3,8.83-.08,1.07-7,13.22-8.23,15.52C2,433.76.25,433.52-2.9,435.49Z" transform="translate(274.36 -309.4)"/><path class="cls-1" d="M32.16,464.54a3.15,3.15,0,0,0-.66-.71l-8.25-9.07c-1.31-1.61-7.86-9-8.9-9.64-1.09-2.42-9-9.79-9.32-11s8.38-16.12,9.06-16.83L34,419c9.8.22,8.56,1,15.64,4.88l7.67,3.75c.39,2.77-.81,11.55-1,15-.66,10.5.12,8.42-4.16,11.94l-13.49,10.7C36.63,466.16,34.3,464.32,32.16,464.54Z" transform="translate(274.36 -309.4)"/><path class="cls-1" d="M88,393.59l-.41,1.46c-1.09.19-2.87,6-3.42,7.53-2.16,6-1.83,4.15-3.17,5.82-.64.78-.63,1.82-1.25,2.58l-.21.21-.22.19c-1.7,1.68-.18,1-2,2.05l-4.8,2.51c-6,2.9-9.45,6.91-15.2,6.73l-.18-.22c0-.05-.13-.16-.18-.22L51.39,419a9,9,0,0,1-1.66-.65,3.82,3.82,0,0,0-1.68-.59,6.9,6.9,0,0,1-3.29-1.33c-.62-5.44.07-14.18.37-19.87.27-5.07.27-14.08,1.16-18.62,3.75-1.37,9.24-2.54,13.31-3.63,2.48-.66,10.89-3.76,12.8-2.46l13.2,11.73C91.67,389.1,90,385.78,88,393.59Z" transform="translate(274.36 -309.4)"/><path class="cls-1" d="M156.15,418.43c-1.89-.25-6.93-.15-9.27-.19-4.85-.09-4.53-.76-6.77-3.28-1.61-1.82-3.33-3.22-4.93-5-1.78-2-2.62-2.92-5-5.31-1.77-1.76-3.12-3.35-4.79-5.2s-3.55-3.39-5.13-5.23a60,60,0,0,0-4.86-5.09c-1-.91-4.34-4.38-4.89-5.55l30.66-5.63c3.28-.29,6.82-1.44,9.76-1.64,2-.14,21.58,9.15,23.6,10.72,0,2.31-4.68,15.59-5.75,18.68-1.75,5.11-.61,4.17-5,7.25C161.82,414.27,157.55,416.44,156.15,418.43Z" transform="translate(274.36 -309.4)"/><path class="cls-1" d="M139.07,340.39c8.12-.09,15.92-.41,24-.87,3.55-.2,7.89-.11,11.7-.49,5.83-.59,4.53.66,6.42,2.68l7.14,8.58c4.1,5.07,4.09,4.77,2.92,8-2.12,5.94-4.41,12.7-6.3,18.54-1.13,3.47-.52,2.85-5.83,6.57-4.24,3-3.72,2.38-8.31.06-5.21-2.64-11.08-5.23-16.78-8.12-2.24-1.13-2.9-4.44-4.31-7.93Z" transform="translate(274.36 -309.4)"/><path class="cls-1" d="M170.91,464.27l-16.84-7c-.3-2.56,1.39-23.7,1.75-29.24.17-2.59-.26-7.49,1.36-9.07,2.15-.95,7.49-5,10.12-6.55,1.11.44,20.76,20,24.68,23.93,1.16,1.18,2.73,2.44,3.71,3.58,1.67,2-.44,8.3-1.05,11.21-.56,2.62-1.4,10-2.93,11.33-.93.79-8.13,3.33-9.78,4C177.94,468.08,177.62,467.1,170.91,464.27Z" transform="translate(274.36 -309.4)"/><path class="cls-1" d="M126.06,427.38l-7.27,3.82a10.89,10.89,0,0,1-4,1.65c-1.48.43-2.17,1.26-4,1.62l-3.35-3.76c-1.1-1.66-2.73-2.9-4.28-4.53s-2.42-2.88-4-4.45l-6.84-6.21c-1.61-1.4-1.16-1.33-2.51-1.71v-1.52l-1.29-.65c-.73-.53-.48.13-.84-1-.28-1,3-12.92,3.28-15.56.82-8.11-1.2-6.39,11.19-11.41,5.26-2.13,7.72,2,9.74,4.27,3.1,3.47,4,3.85,7.5,7.84L137.73,415c1.59,1.43,2.55,2.15,3.39,3.78Z" transform="translate(274.36 -309.4)"/><path class="cls-1" d="M22.7,373.06,8,401.55c-2.3-.35-13.42-6.17-16.06-7.47l-16.11-7.74c.39-2.35,12.27-22.59,15-27.75.8-1.52,1.62-3.08,2.56-4.75l2.9-4.59c2.72.08,15.06,5.48,18.58,6.87,5,2,3.91,1.88,5.84,6.9C23.05,369.05,24,369.13,22.7,373.06Z" transform="translate(274.36 -309.4)"/><path class="cls-1" d="M205.64,391.46v45.17l-8,3.17c-1.86-1.25-6.39-6.22-8.49-8.32l-16.62-16.73c-4.53-4.64-4.41-2.22-1.61-11.16,1.32-4.23,2.55-8.26,4-12.48.93-2.75.69-3.78,3-5.37,1.45-1,3.28-2.52,4.93-3.57,2.45-1.57,7.27,1.73,11.51,3.84Z" transform="translate(274.36 -309.4)"/><path class="cls-1" d="M24.36,368.84c-.46-2.39-2-5.36-2.9-7.79-1.7-4.68-2.1-3.12,1.38-6.57l13.52-13.34c1.41-1.36,1.53-1.56,3.81-1.11,2.95.58,5.81,1.19,8.91,1.86s15.86,3,17.51,4.09c.86,1.55,1.47,7.27,1.86,9.56l1.65,9.15a2.21,2.21,0,0,0,.12.27l.27.52.23,4.31c-7.64,2-16.38,4.92-23.87,6.46-2.44.51-9.58-2.15-12.29-3C30.13,371.9,25.92,371.27,24.36,368.84Z" transform="translate(274.36 -309.4)"/><path class="cls-1" d="M157.59,486.57c-2.56-.43-8.06,1.22-11.15,1-1.19-1.3-1.5-4.48-2.83-5.48-.05-.74-3-8.34-3.88-9.29,0-1.17-1.44-3.59-1.8-5l9.42-5.82c5.84-2.17,3.52-4.32,9-2l9.45,3.77,4.22,1.9c.09,1-5.46,19.27-6,19.69a11.82,11.82,0,0,1-3.2.51c-.55.07-1.12.11-1.65.18l-1.37.36A.75.75,0,0,0,157.59,486.57Z" transform="translate(274.36 -309.4)"/><path class="cls-1" d="M141.08,376.69c-2.42-.22-14.2,2.26-17.58,2.84-5.93,1-12.08,2.81-18,2.11.42-3.94,6.09-18.37,6-21l1-1.92c.22-.66.49-1.56.74-2.39l2.75-9.05c.72-2.38.75-2.28,3-3.11,3-1.09,5.81-2,8.82-3.08,2.63-.93,7.21-3.45,9.16-.87.54.71,13.2,32.21,13.68,34.44l-9.34,1.92A2.15,2.15,0,0,0,141.08,376.69Z" transform="translate(274.36 -309.4)"/><path class="cls-1" d="M42.32,413.45v.77L41.55,416c-4.54.36-22.27-1.13-27.74-1.65-.8-1-4.55-9.66-4.7-10.95-.18-1.56,4-8.77,4.91-10.58L24.63,372c2,0,17.47,4.83,19.84,5.94C45.23,384.35,42.33,405.3,42.32,413.45Z" transform="translate(274.36 -309.4)"/><path class="cls-1" d="M143.63,462.76c-1.65.36-6.5,3.54-8.32,4.59-3.23,1.87-5,4.06-9,1.67l-13.61-5c-.82-2.95-.91-23.16.25-25s2.14-2,3.62-3.12a8.59,8.59,0,0,0,1-1c1.72-1.75-.46.32,2.76-1.72l8.18-5.06.82-.39c.49-.67,8.68-5.32,10.3-6.31,4.24-2.59,9.64-1.7,15-1.8.33,2.13-1.86,35.45-2.47,37.47C149.86,459,144.88,460.87,143.63,462.76Z" transform="translate(274.36 -309.4)"/><path class="cls-1" d="M-34.36,387.6V337.66l24.23,1c2.12,4.32,5.6,8.19,4.77,10.54l-9.26,16.5c-2.56,4.55-4.9,8.81-7.4,13.3-.69,1.24-3.06,5.86-3.86,6.54C-27.16,386.6-32.32,387.3-34.36,387.6Z" transform="translate(274.36 -309.4)"/><path class="cls-1" d="M-6.07,328H34.74c1.87,12.69,5.22,7.92-4.6,17.34-2.28,2.19-4.23,4.16-6.56,6.47-5.07,5-4.23,4.62-8.19,3.1-2.65-1-18.11-6.84-18.91-7.56-1.59-1.45-.63-2-3-5C-10.59,337.27-6.95,332.06-6.07,328Z" transform="translate(274.36 -309.4)"/><path class="cls-1" d="M178.24,328h27.4v20.66c-3.8,1.22-9.58,5.46-13.23,5.58L182,340.86c-1.35-1.7-2-1.57-2.53-3.63A93.13,93.13,0,0,1,178.24,328Z" transform="translate(274.36 -309.4)"/><path class="cls-1" d="M205.64,349.58v40.59c-1-.28-17-8.14-19.37-9.87a5.25,5.25,0,0,1-.73-.59c.39-2.34,7.23-22.73,7.71-23.46C194.41,354.47,204.38,349.85,205.64,349.58Z" transform="translate(274.36 -309.4)"/><path class="cls-1" d="M36.26,328h41c-.63,1.55-9.43,15.18-10.42,15.9-2.47.13-25-4.71-28.23-5.7Z" transform="translate(274.36 -309.4)"/><path class="cls-1" d="M136.82,328h40.25l1.43,9.92-32.66,1C133.12,339.36,136,340.49,136.82,328Z" transform="translate(274.36 -309.4)"/><path class="cls-1" d="M97.53,328h38.13l-1.38,9.37-16.14,5.6c-2.73.82-3.13-.33-4.75-1.7C110.7,338.93,98.15,329.08,97.53,328Z" transform="translate(274.36 -309.4)"/><path class="cls-1" d="M205.64,437.79v34.86c-1.52-.71-6.59-5.21-8.11-6.64-4.65-4.37-4.32-1.75-2.68-9.66.84-4,1.66-8.08,2.51-12.1.68-3.24.25-3.09,3-4.3A32.28,32.28,0,0,1,205.64,437.79Z" transform="translate(274.36 -309.4)"/><path class="cls-1" d="M58.34,448.72c.64-6.93.91-6.15,2-11.17l1.11-11.06c1.06,0,.53.18,1.55-.24l8.05-4.7A88.54,88.54,0,0,1,80,416.4a2.29,2.29,0,0,1,2.67-1.1c2,.47,5.42,3.87,7,5.5.51.49,1,.75,1.25,1l13.3,13.59c1,.78,1.73,1,2.4,1.83s.25.63.93,1.31c.46.46.53.16,1,1a12.81,12.81,0,0,1,.45,3.69c.16,2.11.78,5.11.86,7.37-.53,3.91,1.57,10.6.62,14.56l-14,8.93c-4,2.46-3.46,1.81-7.18-.75L62,455.09C59.7,453.57,57,452.76,58.34,448.72Z" transform="translate(274.36 -309.4)"/><path class="cls-1" d="M-34.36,336.19V328H-7.28c-.31,2.26-1.87,7.47-3,8.75-.48.21.53,0-1.08.32l-2.31,0c-1,0-2-.07-3.07-.09C-21,336.86-30.94,336.76-34.36,336.19Z" transform="translate(274.36 -309.4)"/><path class="cls-1" d="M586.94,371.64c-.7,2.12-1.2,3.73-1.9,5.94-1,3.06-.41,3.63-3.38,4.8-12.22,4.81-8.54,5.68-20.13-4.32-2-1.73-6.5-6-8.36-7.05-1.53-3.39-2-8.26-2.71-12.2-2.91-15.24-3.6-11.93,3.08-21.89,1.34-2,5.09-7.26,5.7-9h15.83c1.33,2.08,19.61,15.68,20,16.86S587.87,367.3,586.94,371.64Z" transform="translate(274.36 -309.4)"/><path class="cls-1" d="M477.1,435.49c-3.37,1.08-14.86,8.5-16.79,8.18-1.62-.27-11.86-9-14.67-10.26V388.83c2.22-.44,4.48-.89,6.69-1.37,3.15-.67,4,.5,6.25,1.52,3.13,1.42,7.42,3.48,10.58,5.18,1.62.86,17.56,8.47,18.26,9.33.88,1.08.2,1.23,1.54,2.61.1,2.27,3.16,6.9,3,8.83-.08,1.07-7,13.22-8.23,15.52C482,433.76,480.25,433.52,477.1,435.49Z" transform="translate(274.36 -309.4)"/><path class="cls-1" d="M512.16,464.54a3.15,3.15,0,0,0-.66-.71l-8.25-9.07c-1.31-1.61-7.86-9-8.9-9.64-1.09-2.42-9-9.79-9.32-11s8.38-16.12,9.06-16.83L514,419c9.8.22,8.56,1,15.64,4.88l7.67,3.75c.39,2.77-.81,11.55-1,15-.66,10.5.12,8.42-4.16,11.94l-13.49,10.7C516.63,466.16,514.3,464.32,512.16,464.54Z" transform="translate(274.36 -309.4)"/><path class="cls-1" d="M568,393.59l-.41,1.46c-1.09.19-2.87,6-3.42,7.53-2.16,6-1.83,4.15-3.17,5.82-.64.78-.63,1.82-1.25,2.58l-.21.21-.22.19c-1.7,1.68-.18,1-2,2.05l-4.8,2.51c-6,2.9-9.45,6.91-15.2,6.73l-.18-.22c0-.05-.13-.16-.18-.22L531.39,419a9,9,0,0,1-1.66-.65,3.82,3.82,0,0,0-1.68-.59,6.9,6.9,0,0,1-3.29-1.33c-.62-5.44.07-14.18.37-19.87.27-5.07.27-14.08,1.16-18.62,3.75-1.37,9.24-2.54,13.31-3.63,2.48-.66,10.89-3.76,12.8-2.46l13.2,11.73C571.67,389.1,570,385.78,568,393.59Z" transform="translate(274.36 -309.4)"/><path class="cls-1" d="M636.14,418.43c-1.88-.25-6.92-.15-9.26-.19-4.85-.09-4.53-.76-6.77-3.28-1.61-1.82-3.33-3.22-4.93-5-1.78-2-2.62-2.92-5-5.31-1.77-1.76-3.12-3.35-4.79-5.2s-3.55-3.39-5.13-5.23a60,60,0,0,0-4.86-5.09c-1-.91-4.34-4.38-4.89-5.55l30.66-5.63c3.28-.29,6.82-1.44,9.76-1.64,2-.14,21.58,9.15,23.6,10.72,0,2.31-4.68,15.59-5.75,18.68-1.75,5.11-.61,4.17-5,7.25C641.82,414.27,637.55,416.44,636.14,418.43Z" transform="translate(274.36 -309.4)"/><path class="cls-1" d="M619.07,340.39c8.11-.09,15.92-.41,24-.87,3.55-.2,7.89-.11,11.7-.49,5.83-.59,4.53.66,6.42,2.68l7.14,8.58c4.1,5.07,4.09,4.77,2.92,8-2.12,5.94-4.41,12.7-6.3,18.54-1.13,3.47-.52,2.85-5.83,6.57-4.24,3-3.72,2.38-8.31.06-5.21-2.64-11.08-5.23-16.78-8.12-2.24-1.13-2.9-4.44-4.31-7.93Z" transform="translate(274.36 -309.4)"/><path class="cls-1" d="M650.91,464.27l-16.84-7c-.3-2.56,1.39-23.7,1.75-29.24.17-2.59-.26-7.49,1.36-9.07,2.15-.95,7.49-5,10.12-6.55,1.11.44,20.76,20,24.68,23.93,1.16,1.18,2.73,2.44,3.71,3.58,1.67,2-.44,8.3-1.05,11.21-.56,2.62-1.4,10-2.93,11.33-.93.79-8.13,3.33-9.78,4C657.94,468.08,657.62,467.1,650.91,464.27Z" transform="translate(274.36 -309.4)"/><path class="cls-1" d="M606.06,427.38l-7.27,3.82a10.89,10.89,0,0,1-4,1.65c-1.48.43-2.17,1.26-3.95,1.62l-3.35-3.76c-1.1-1.66-2.73-2.9-4.28-4.53s-2.42-2.88-4-4.45l-6.84-6.21c-1.61-1.4-1.16-1.33-2.51-1.71v-1.52l-1.29-.65c-.73-.53-.48.13-.84-1-.29-1,3-12.92,3.28-15.56.82-8.11-1.2-6.39,11.19-11.41,5.26-2.13,7.72,2,9.74,4.27,3.1,3.47,4,3.85,7.5,7.84L617.73,415c1.59,1.43,2.55,2.15,3.39,3.78Z" transform="translate(274.36 -309.4)"/><path class="cls-1" d="M502.7,373.06,488,401.55c-2.3-.35-13.42-6.17-16.06-7.47l-16.11-7.74c.39-2.35,12.27-22.59,15-27.75.8-1.52,1.62-3.08,2.56-4.75l2.9-4.59c2.72.08,15.06,5.48,18.58,6.87,5,2,3.91,1.88,5.84,6.9C503.05,369.05,504,369.13,502.7,373.06Z" transform="translate(274.36 -309.4)"/><path class="cls-1" d="M685.64,391.46v45.17l-8,3.17c-1.86-1.25-6.39-6.22-8.49-8.32l-16.62-16.73c-4.53-4.64-4.41-2.22-1.61-11.16,1.32-4.23,2.55-8.26,4-12.48.92-2.75.69-3.78,3-5.37,1.45-1,3.28-2.52,4.93-3.57,2.45-1.57,7.27,1.73,11.51,3.84Z" transform="translate(274.36 -309.4)"/><path class="cls-1" d="M504.36,368.84c-.46-2.39-2-5.36-2.9-7.79-1.7-4.68-2.1-3.12,1.38-6.57l13.52-13.34c1.41-1.36,1.53-1.56,3.81-1.11,3,.58,5.81,1.19,8.91,1.86s15.86,3,17.51,4.09c.86,1.55,1.47,7.27,1.86,9.56l1.64,9.15c0,.08.09.2.13.27l.27.52.23,4.31c-7.64,2-16.38,4.92-23.87,6.46-2.44.51-9.58-2.15-12.29-3C510.13,371.9,505.92,371.27,504.36,368.84Z" transform="translate(274.36 -309.4)"/><path class="cls-1" d="M639.59,498.68c-3.68-.62-11.59,1.75-16.06,1.44-1.7-1.87-2.15-6.44-4.06-7.89-.08-1.07-4.32-12-5.59-13.37,0-1.69-2.07-5.17-2.59-7.13l13.55-8.39c8.42-3.12,5.08-6.22,13-2.82l13.6,5.43,6.08,2.73c.12,1.46-7.86,27.74-8.69,28.35a17.33,17.33,0,0,1-4.6.73c-.79.1-1.61.16-2.38.26l-2,.51A2,2,0,0,0,639.59,498.68Z" transform="translate(274.36 -309.4)"/><path class="cls-1" d="M685.64,474.19l.3.66v29.61l-.3.24c-4.69,1.38-17.89,6.72-21.08,6.83-.22-.11-13-12.44-13.36-13-1.08-1.81,4.43-17.45,5.31-20.25,3.8-12.1,1.32-8.59,13.09-13.43,4.37-1.8,2.94-.94,8.42,3.38C679.54,469.42,684.24,473.66,685.64,474.19Z" transform="translate(274.36 -309.4)"/><path class="cls-1" d="M621.08,376.69c-2.42-.22-14.2,2.26-17.58,2.84-5.93,1-12.08,2.81-18,2.11.42-3.94,6.09-18.37,6-21l1-1.92c.22-.66.49-1.56.74-2.39l2.75-9.05c.72-2.38.75-2.28,3-3.11,3-1.09,5.81-2,8.82-3.08,2.63-.93,7.21-3.45,9.16-.87.54.71,13.2,32.21,13.68,34.44l-9.34,1.92A2.15,2.15,0,0,0,621.08,376.69Z" transform="translate(274.36 -309.4)"/><path class="cls-1" d="M522.32,413.45v.77l-.77,1.77c-4.54.36-22.27-1.13-27.74-1.65-.8-1-4.55-9.66-4.7-10.95-.18-1.56,4-8.77,4.91-10.58L504.63,372c2,0,17.47,4.83,19.84,5.94C525.23,384.35,522.33,405.3,522.32,413.45Z" transform="translate(274.36 -309.4)"/><path class="cls-1" d="M623.63,462.76c-1.65.36-6.5,3.54-8.32,4.59-3.23,1.87-5,4.06-9,1.67l-13.61-5c-.82-2.95-.91-23.16.25-25s2.14-2,3.62-3.12a8.59,8.59,0,0,0,1.05-1c1.72-1.75-.46.32,2.76-1.72l8.18-5.06.82-.39c.49-.67,8.68-5.32,10.3-6.31,4.24-2.59,9.64-1.7,15-1.8.33,2.13-1.86,35.45-2.47,37.47C629.86,459,624.88,460.87,623.63,462.76Z" transform="translate(274.36 -309.4)"/><path class="cls-1" d="M445.64,387.6V337.66l24.23,1c2.12,4.32,5.6,8.19,4.77,10.54l-9.26,16.5c-2.56,4.55-4.9,8.81-7.4,13.3-.69,1.24-3.06,5.86-3.86,6.54C452.84,386.6,447.68,387.3,445.64,387.6Z" transform="translate(274.36 -309.4)"/><path class="cls-1" d="M473.93,328h40.81c1.87,12.69,5.22,7.92-4.6,17.34-2.28,2.19-4.23,4.16-6.56,6.47-5.07,5-4.23,4.62-8.19,3.1-2.65-1-18.11-6.84-18.91-7.56-1.59-1.45-.63-2-3-5C469.41,337.27,473.05,332.06,473.93,328Z" transform="translate(274.36 -309.4)"/><path class="cls-1" d="M658.24,328h27.4v20.66c-3.8,1.22-9.58,5.46-13.23,5.58L662,340.86c-1.35-1.7-2-1.57-2.53-3.63A93.13,93.13,0,0,1,658.24,328Z" transform="translate(274.36 -309.4)"/><path class="cls-1" d="M685.64,349.58l1.6,18.69-1.6,21.9c-1-.28-17-8.14-19.37-9.87a5.25,5.25,0,0,1-.73-.59c.38-2.34,7.23-22.73,7.71-23.46C674.41,354.47,684.38,349.85,685.64,349.58Z" transform="translate(274.36 -309.4)"/><path class="cls-1" d="M516.26,328h41c-.63,1.55-9.43,15.18-10.42,15.9-2.47.13-25.05-4.71-28.23-5.7Z" transform="translate(274.36 -309.4)"/><path class="cls-1" d="M616.82,328h40.25l1.43,9.92-32.66,1C613.12,339.36,616,340.49,616.82,328Z" transform="translate(274.36 -309.4)"/><path class="cls-1" d="M577.53,328h38.13l-1.38,9.37-16.14,5.6c-2.73.82-3.13-.33-4.75-1.7C590.7,338.93,578.15,329.08,577.53,328Z" transform="translate(274.36 -309.4)"/><path class="cls-1" d="M685.64,437.79l1,16-1,18.83c-1.52-.71-6.59-5.21-8.11-6.64-4.65-4.37-4.32-1.75-2.68-9.66.84-4,1.66-8.08,2.51-12.1.68-3.24.25-3.09,3-4.3A32.28,32.28,0,0,1,685.64,437.79Z" transform="translate(274.36 -309.4)"/><path class="cls-1" d="M538.34,448.72c.64-6.93.91-6.15,2-11.17l1.11-11.06c1.06,0,.53.18,1.55-.24l8.05-4.7A88.54,88.54,0,0,1,560,416.4a2.29,2.29,0,0,1,2.67-1.1c2,.47,5.42,3.87,7.06,5.5.5.49.94.75,1.24,1l13.3,13.59c1,.78,1.73,1,2.4,1.83s.25.63.93,1.31c.46.46.53.16,1,1a12.81,12.81,0,0,1,.45,3.69c.16,2.11.78,5.11.86,7.37-.53,3.91,1.57,10.6.62,14.56l-14,8.93c-4,2.46-3.46,1.81-7.18-.75L542,455.09C539.7,453.57,537,452.76,538.34,448.72Z" transform="translate(274.36 -309.4)"/><path class="cls-1" d="M445.64,336.19V328h27.08c-.31,2.26-1.87,7.47-3,8.75-.48.21.53,0-1.08.32l-2.31,0c-1,0-2.05-.07-3.07-.09C459,336.86,449.06,336.76,445.64,336.19Z" transform="translate(274.36 -309.4)"/><path class="cls-1" d="M1066.94,371.64c-.7,2.12-1.2,3.73-1.9,5.94-1,3.06-.41,3.63-3.38,4.8-12.22,4.81-8.54,5.68-20.13-4.32-2-1.73-6.5-6-8.36-7.05-1.53-3.39-2-8.26-2.71-12.2-2.91-15.24-3.6-11.93,3.08-21.89,1.34-2,5.09-7.26,5.7-9h15.83c1.33,2.08,19.61,15.68,20,16.86S1067.87,367.3,1066.94,371.64Z" transform="translate(274.36 -309.4)"/><path class="cls-1" d="M957.1,435.49c-3.37,1.08-14.86,8.5-16.79,8.18-1.62-.27-11.86-9-14.67-10.26V388.83c2.22-.44,4.48-.89,6.69-1.37,3.15-.67,4,.5,6.25,1.52,3.13,1.42,7.42,3.48,10.58,5.18,1.62.86,17.56,8.47,18.26,9.33.88,1.08.2,1.23,1.54,2.61.1,2.27,3.16,6.9,3,8.83-.08,1.07-7,13.22-8.23,15.52C962,433.76,960.25,433.52,957.1,435.49Z" transform="translate(274.36 -309.4)"/><path class="cls-1" d="M992.16,464.54a3.15,3.15,0,0,0-.66-.71l-8.25-9.07c-1.31-1.61-7.86-9-8.9-9.64-1.09-2.42-9-9.79-9.32-11s8.38-16.12,9.06-16.83L994,419c9.8.22,8.56,1,15.64,4.88l7.67,3.75c.39,2.77-.81,11.55-1,15-.66,10.5.12,8.42-4.16,11.94l-13.49,10.7C996.63,466.16,994.3,464.32,992.16,464.54Z" transform="translate(274.36 -309.4)"/><path class="cls-1" d="M1048,393.59l-.41,1.46c-1.09.19-2.87,6-3.42,7.53-2.16,6-1.83,4.15-3.17,5.82-.64.78-.63,1.82-1.25,2.58-.06.07-.15.14-.21.21l-.22.19c-1.7,1.68-.18,1-2,2.05l-4.8,2.51c-6,2.9-9.45,6.91-15.2,6.73l-.18-.22c0-.05-.13-.16-.18-.22l-5.52-3.22a9,9,0,0,1-1.66-.65,3.82,3.82,0,0,0-1.68-.59,6.9,6.9,0,0,1-3.29-1.33c-.62-5.44.07-14.18.37-19.87.27-5.07.27-14.08,1.16-18.62,3.75-1.37,9.24-2.54,13.31-3.63,2.48-.66,10.89-3.76,12.8-2.46l13.2,11.73C1051.67,389.1,1050,385.78,1048,393.59Z" transform="translate(274.36 -309.4)"/><path class="cls-1" d="M1116.14,418.43c-1.88-.25-6.92-.15-9.26-.19-4.85-.09-4.53-.76-6.77-3.28-1.61-1.82-3.33-3.22-4.93-5-1.78-2-2.62-2.92-5-5.31-1.77-1.76-3.12-3.35-4.79-5.2s-3.55-3.39-5.13-5.23a60,60,0,0,0-4.86-5.09c-1-.91-4.34-4.38-4.89-5.55l30.66-5.63c3.28-.29,6.82-1.44,9.76-1.64,2-.14,21.58,9.15,23.6,10.72,0,2.31-4.68,15.59-5.75,18.68-1.75,5.11-.61,4.17-5,7.25C1121.82,414.27,1117.55,416.44,1116.14,418.43Z" transform="translate(274.36 -309.4)"/><path class="cls-1" d="M1099.07,340.39c8.12-.09,15.92-.41,24-.87,3.55-.2,7.89-.11,11.7-.49,5.83-.59,4.53.66,6.42,2.68l7.14,8.58c4.1,5.07,4.09,4.77,2.92,8-2.12,5.94-4.41,12.7-6.3,18.54-1.13,3.47-.52,2.85-5.83,6.57-4.24,3-3.72,2.38-8.31.06-5.21-2.64-11.08-5.23-16.78-8.12-2.24-1.13-2.9-4.44-4.31-7.93Z" transform="translate(274.36 -309.4)"/><path class="cls-1" d="M1130.91,464.27l-16.84-7c-.3-2.56,1.39-23.7,1.75-29.24.17-2.59-.26-7.49,1.36-9.07,2.15-.95,7.49-5,10.12-6.55,1.11.44,20.76,20,24.68,23.93,1.16,1.18,2.73,2.44,3.71,3.58,1.67,2-.44,8.3-1,11.21-.56,2.62-1.4,10-2.93,11.33-.93.79-8.13,3.33-9.78,4C1137.94,468.08,1137.62,467.1,1130.91,464.27Z" transform="translate(274.36 -309.4)"/><path class="cls-1" d="M1086.06,427.38l-7.27,3.82a10.89,10.89,0,0,1-4,1.65c-1.48.43-2.17,1.26-4,1.62l-3.35-3.76c-1.1-1.66-2.73-2.9-4.28-4.53s-2.42-2.88-4-4.45l-6.84-6.21c-1.61-1.4-1.16-1.33-2.51-1.71v-1.52l-1.29-.65c-.73-.53-.48.13-.84-1-.29-1,3-12.92,3.28-15.56.82-8.11-1.2-6.39,11.19-11.41,5.26-2.13,7.72,2,9.74,4.27,3.1,3.47,4,3.85,7.5,7.84L1097.73,415c1.59,1.43,2.55,2.15,3.39,3.78Z" transform="translate(274.36 -309.4)"/><path class="cls-1" d="M982.7,373.06,968,401.55c-2.3-.35-13.42-6.17-16.06-7.47l-16.11-7.74c.39-2.35,12.27-22.59,15-27.75.8-1.52,1.62-3.08,2.56-4.75l2.9-4.59c2.72.08,15.06,5.48,18.58,6.87,5,2,3.91,1.88,5.84,6.9C983.05,369.05,984,369.13,982.7,373.06Z" transform="translate(274.36 -309.4)"/><path class="cls-1" d="M1165.64,391.46v45.17l-8,3.17c-1.86-1.25-6.39-6.22-8.49-8.32l-16.62-16.73c-4.53-4.64-4.41-2.22-1.61-11.16,1.32-4.23,2.55-8.26,4-12.48.92-2.75.69-3.78,3-5.37,1.45-1,3.28-2.52,4.93-3.57,2.45-1.57,7.27,1.73,11.51,3.84Z" transform="translate(274.36 -309.4)"/><path class="cls-1" d="M984.36,368.84c-.46-2.39-2-5.36-2.9-7.79-1.7-4.68-2.1-3.12,1.38-6.57l13.52-13.34c1.41-1.36,1.53-1.56,3.81-1.11,3,.58,5.81,1.19,8.91,1.86s15.86,3,17.51,4.09c.86,1.55,1.47,7.27,1.86,9.56l1.64,9.15c0,.08.09.2.13.27l.27.52.23,4.31c-7.64,2-16.38,4.92-23.87,6.46-2.44.51-9.58-2.15-12.29-3C990.13,371.9,985.92,371.27,984.36,368.84Z" transform="translate(274.36 -309.4)"/><path class="cls-1" d="M1119.59,498.68c-3.68-.62-11.59,1.75-16.06,1.44-1.7-1.87-2.15-6.44-4.06-7.89-.08-1.07-4.32-12-5.59-13.37,0-1.69-2.07-5.17-2.59-7.13l13.55-8.39c8.42-3.12,5.08-6.22,13-2.82l13.6,5.43,6.08,2.73c.12,1.46-7.86,27.74-8.69,28.35a17.33,17.33,0,0,1-4.6.73c-.79.1-1.61.16-2.38.26l-2,.51A2,2,0,0,0,1119.59,498.68Z" transform="translate(274.36 -309.4)"/><path class="cls-1" d="M1165.64,474.19V504.7c-4.69,1.38-17.89,6.72-21.08,6.83-.22-.11-13-12.44-13.36-13-1.08-1.81,4.43-17.45,5.31-20.25,3.8-12.1,1.32-8.59,13.09-13.43,4.37-1.8,2.94-.94,8.42,3.38C1159.54,469.42,1164.24,473.66,1165.64,474.19Z" transform="translate(274.36 -309.4)"/><path class="cls-1" d="M1101.08,376.69c-2.42-.22-14.2,2.26-17.59,2.84-5.92,1-12.07,2.81-18,2.11.42-3.94,6.09-18.37,6-21l1-1.92c.22-.66.49-1.56.74-2.39l2.75-9.05c.72-2.38.75-2.28,3-3.11,3-1.09,5.81-2,8.82-3.08,2.63-.93,7.21-3.45,9.16-.87.54.71,13.2,32.21,13.68,34.44l-9.34,1.92A2.15,2.15,0,0,0,1101.08,376.69Z" transform="translate(274.36 -309.4)"/><path class="cls-1" d="M1002.32,413.45v.77l-.77,1.77c-4.54.36-22.27-1.13-27.74-1.65-.8-1-4.55-9.66-4.7-10.95-.18-1.56,4-8.77,4.91-10.58L984.63,372c2,0,17.47,4.83,19.84,5.94C1005.23,384.35,1002.33,405.3,1002.32,413.45Z" transform="translate(274.36 -309.4)"/><path class="cls-1" d="M1103.63,462.76c-1.65.36-6.5,3.54-8.32,4.59-3.23,1.87-5,4.06-9,1.67l-13.61-5c-.82-2.95-.91-23.16.25-25s2.14-2,3.62-3.12a8.59,8.59,0,0,0,1-1c1.72-1.75-.46.32,2.76-1.72l8.18-5.06.82-.39c.49-.67,8.68-5.32,10.3-6.31,4.24-2.59,9.64-1.7,15-1.8.33,2.13-1.86,35.45-2.47,37.47C1109.86,459,1104.88,460.87,1103.63,462.76Z" transform="translate(274.36 -309.4)"/><path class="cls-1" d="M925.64,387.6V337.66l24.23,1c2.12,4.32,5.6,8.19,4.77,10.54l-9.26,16.5c-2.56,4.55-4.9,8.81-7.4,13.3-.69,1.24-3.06,5.86-3.86,6.54C932.84,386.6,927.68,387.3,925.64,387.6Z" transform="translate(274.36 -309.4)"/><path class="cls-1" d="M953.93,328h40.81c1.87,12.69,5.22,7.92-4.6,17.34-2.28,2.19-4.23,4.16-6.56,6.47-5.07,5-4.23,4.62-8.19,3.1-2.65-1-18.11-6.84-18.91-7.56-1.59-1.45-.63-2-3-5C949.41,337.27,953.05,332.06,953.93,328Z" transform="translate(274.36 -309.4)"/><path class="cls-1" d="M1138.24,309.4h27.4v40.52c-3.8,1.22-9.58,5.46-13.23,5.57L1142,342.16c-1.35-1.7-2-1.57-2.53-3.63-.37-1.53-1-6.73-1.19-8.86C1138.26,329.51,1138.25,309.52,1138.24,309.4Z" transform="translate(274.36 -309.4)"/><path class="cls-1" d="M1165.64,349.58v40.59c-1-.28-17-8.14-19.37-9.87a5.25,5.25,0,0,1-.73-.59c.38-2.34,7.23-22.73,7.71-23.46C1154.41,354.47,1164.38,349.85,1165.64,349.58Z" transform="translate(274.36 -309.4)"/><path class="cls-1" d="M996.26,328h41c-.63,1.55-9.43,15.18-10.42,15.9-2.47.13-25-4.71-28.23-5.7Z" transform="translate(274.36 -309.4)"/><path class="cls-1" d="M1096.82,328h40.25l1.43,9.92-32.66,1C1093.12,339.36,1096,340.49,1096.82,328Z" transform="translate(274.36 -309.4)"/><path class="cls-1" d="M1057.53,328h38.13l-1.38,9.37-16.14,5.6c-2.73.82-3.13-.33-4.75-1.7C1070.7,338.93,1058.15,329.08,1057.53,328Z" transform="translate(274.36 -309.4)"/><path class="cls-1" d="M1165.64,437.79v34.86c-1.52-.71-6.59-5.21-8.11-6.64-4.65-4.37-4.32-1.75-2.68-9.66.84-4,1.66-8.08,2.51-12.1.68-3.24.25-3.09,3-4.3A32.28,32.28,0,0,1,1165.64,437.79Z" transform="translate(274.36 -309.4)"/><path class="cls-1" d="M1018.34,448.72c.64-6.93.91-6.15,2-11.17l1.11-11.06c1.06,0,.53.18,1.55-.24l8-4.7a88.54,88.54,0,0,1,8.94-5.15,2.29,2.29,0,0,1,2.67-1.1c2,.47,5.42,3.87,7.06,5.5.5.49.94.75,1.24,1l13.3,13.59c1,.78,1.73,1,2.4,1.83s.25.63.93,1.31c.46.46.53.16,1,1a12.81,12.81,0,0,1,.45,3.69c.16,2.11.78,5.11.86,7.37-.53,3.91,1.57,10.6.62,14.56l-14,8.93c-4,2.46-3.46,1.81-7.18-.75l-27.3-18.3C1019.7,453.57,1017,452.76,1018.34,448.72Z" transform="translate(274.36 -309.4)"/><path class="cls-1" d="M925.64,336.19V328h27.08c-.31,2.26-1.87,7.47-3,8.75-.48.21.53,0-1.08.32l-2.31,0c-1,0-2.05-.07-3.07-.09C939,336.86,929.06,336.76,925.64,336.19Z" transform="translate(274.36 -309.4)"/><path class="cls-1" d="M-59.93,464.71c.47-1.21,3.42-4.51,4.42-5.76,1.78-2.23,3.63-3.32,2.29-6.62l-2.19-10.84c-2.14-1-17.38-3.32-18.87-2.66S-76,440.22-77,441.21a6.26,6.26,0,0,1-.89.67c-1.52,1.1.29-.3-1.61,1.89l-4.75,5.6-.39.57c-.56.3-5,5.95-5.94,7.06-2.43,2.9-2.38,7.08-3.06,11.08,1.57.5,27,2.64,28.56,2.41C-63.48,469-61.49,465.43-59.93,464.71Z" transform="translate(274.36 -309.4)"/><path class="cls-1" d="M474.33,438.47c1.78-.49,6.31-2.1,7.8-2.15,3-.11,2.55-.05,4.58,2.56,2.52,3.24,5,6.51,7.55,9.78,4.94,6.39,4.09,3.89,1.82,9.86-.71,1.85-5.72,8.27-7.11,10l.32.67c-1.67,0-8.2-1.8-10.19-2.41-6.1-1.9-4.65.31-6.64-7.52-1-4-2-8-3-12-.81-3.21-1.13-2.89.8-5.18A19.59,19.59,0,0,1,474.33,438.47Z" transform="translate(274.36 -309.4)"/><path class="cls-1" d="M-274.33,309.4v20.36c.32.1,13.2,15.17,13.49,15.29,15.2,5.84.71,35,19.29,24.16.11-.06,11.27-9.08,11.45-9.28,3.55-4.07,7-4.43,21-13.39.39-.24,21.52,2,31,.63,11.81-1.73,8.52-2.33,21.58-11.32,7.06-4.86,26.86,41.2,25.47,8.5-.26-6,18.82-11.47,24.94-8.79,4.59,2,33.62-.15,34.27-3.2,2-9.41,45.36-6.77,56.75,10.12,14.61.68,13.53-17.45,32.31-11.69,22,6.74,2.09,6.51,32.56,19,12.36,5.07,36.38-18.29,35-17.23-3,2.34-24.22-8.62.07.7,4.8,1.84,9.52-10.11,19.34-.91,9.07,8.48,34-3,58.14,10.81,20.57,11.76,46.49-4.67,45.7,23.23-.65,23.23,26.7-40.59,27.58-9.28.19,6.64,37.08-22.67,47.82-1.25,2.86,5.7,26.92-40.86,43.24-10.25,9.44,17.69-1.66-15.78,40.57-15.78,52.5,0,8.06-2.51,40.77,23.53,17.65,14.06-3.4-3.49,12.78-14.53,5.9-4-25.63-15.74,22-7.32,27.62,4.88-5.3,19.29,37.56,1,24.09-10.3,29,66.19,45.53,66.19,18.47,0,13.8-7.34,35.26-17.74,10.29-5-33.15,1.59-.69-3.14,49.94-7.27,28.29,35.71,49.42-3.49,7-13,6.6,32.52,6.63,32.67,13.19,3.05,11.37-42.12,33.59-17.45,13.14,14.61,4.7-26,17.09-16.46,55.06,42.31,4.37-22.44,48.14-38.07,10.83-3.86-3.49,7.53,24.42-4.19,15.37-6.45,22.28,42.61,41.62,9.1,9.55-16.55,13.39,3.48,32.74,7.16,38.58,7.33-6.88,4.09,24.73,15.65,16.61-15.46,16.37-3,3.28-12.93-9.82-7.44,8.84-7.93-13.41-10.74-13.48-1.71,22.85-8,44.26-2.37,4.58,17.53,2.7,18,37.08,15.84,4-.25-21.36-23,11.87-21.08,13.1.77-.2,13.42,17.59,3.63C945.5,331.82,962,328.65,962,345c0,30.89,36.87-37.38,36-2.58-.66,27,12.2,9.19,18.36-2.23,3.32-6.15,5.95,5.88,19.12-11,14.76-3.66,15.7,14.38,18.65,15.89,1,.51,16.43,1.17,18.28,4.81,5.82,11.42-2.46-13,13.55-14.94,14-1.72,3.46-13.95,34.35.34,2.46,1.87,17.59,9.38,17.66,7.13.78-24.78,20.5-6.92,15.63-23.67-.7-2.41-3.38-7.63-3.23-9.34" transform="translate(274.36 -309.4)"/></svg>