<svg width="328" height="40" viewBox="0 0 328 40" fill="none" xmlns="http://www.w3.org/2000/svg">
<path d="M6.07764 21.4404H14.1328V25H1.4502V5.80469H6.07764V21.4404ZM22.7812 25.2637C20.5928 25.2637 18.8218 24.6133 17.4683 23.3125C16.1147 22.0029 15.438 20.3022 15.438 18.2104V17.8413C15.438 16.3823 15.7061 15.0947 16.2422 13.9785C16.7871 12.8623 17.5781 12.001 18.6152 11.3945C19.6523 10.7793 20.8828 10.4717 22.3066 10.4717C24.3105 10.4717 25.8926 11.0957 27.0527 12.3438C28.2129 13.583 28.793 15.3145 28.793 17.5381V19.2651H19.96C20.1182 20.0649 20.4653 20.6934 21.0015 21.1504C21.5376 21.6074 22.2319 21.8359 23.0845 21.8359C24.4907 21.8359 25.5894 21.3438 26.3804 20.3594L28.4106 22.7588C27.8569 23.5234 27.0703 24.1343 26.0508 24.5913C25.04 25.0396 23.9502 25.2637 22.7812 25.2637ZM22.2803 13.8994C20.9795 13.8994 20.2061 14.7607 19.96 16.4834H24.4424V16.1406C24.46 15.4287 24.2798 14.8794 23.9019 14.4927C23.5239 14.0972 22.9834 13.8994 22.2803 13.8994ZM34.6729 10.7354L34.8179 12.4097C35.8022 11.1177 37.1602 10.4717 38.8916 10.4717C40.377 10.4717 41.4844 10.9155 42.2139 11.8032C42.9521 12.6909 43.3345 14.0269 43.3608 15.811V25H38.9048V15.9956C38.9048 15.2749 38.7598 14.7476 38.4697 14.4136C38.1797 14.0708 37.6523 13.8994 36.8877 13.8994C36.0176 13.8994 35.3716 14.2422 34.9497 14.9277V25H30.5068V10.7354H34.6729ZM45.312 17.7622C45.312 16.3208 45.5493 15.0464 46.0239 13.939C46.4985 12.8315 47.1797 11.979 48.0674 11.3813C48.9551 10.7749 49.9878 10.4717 51.1655 10.4717C52.6509 10.4717 53.811 10.9727 54.646 11.9746L54.8042 10.7354H58.8384V24.4595C58.8384 25.7163 58.5439 26.8062 57.9551 27.729C57.375 28.6606 56.5312 29.3726 55.4238 29.8647C54.3164 30.3657 53.0332 30.6162 51.5742 30.6162C50.5283 30.6162 49.5132 30.4185 48.5288 30.0229C47.5532 29.6274 46.8062 29.1133 46.2876 28.4805L48.1465 25.8701C48.9727 26.8457 50.0625 27.3335 51.416 27.3335C53.3848 27.3335 54.3691 26.3228 54.3691 24.3013V23.853C53.5166 24.7935 52.4399 25.2637 51.1392 25.2637C49.3989 25.2637 47.9927 24.6001 46.9204 23.2729C45.8481 21.937 45.312 20.1528 45.312 17.9204V17.7622ZM49.7681 18.0391C49.7681 19.208 49.9878 20.1353 50.4272 20.8208C50.8667 21.4976 51.4819 21.8359 52.2729 21.8359C53.231 21.8359 53.9297 21.5151 54.3691 20.8735V14.875C53.9385 14.2246 53.2485 13.8994 52.2993 13.8994C51.5083 13.8994 50.8887 14.2554 50.4404 14.9673C49.9922 15.6704 49.7681 16.6943 49.7681 18.0391ZM69.8599 23.4575C68.9194 24.6616 67.6494 25.2637 66.0498 25.2637C64.4854 25.2637 63.2988 24.811 62.4902 23.9058C61.6904 22.9917 61.2905 21.6821 61.2905 19.9771V10.7354H65.7334V20.0034C65.7334 21.2251 66.3267 21.8359 67.5132 21.8359C68.5327 21.8359 69.2578 21.4712 69.6885 20.7417V10.7354H74.1577V25H69.9917L69.8599 23.4575ZM84.6387 25C84.4805 24.71 84.3398 24.2837 84.2168 23.7212C83.3994 24.7495 82.2568 25.2637 80.7891 25.2637C79.4443 25.2637 78.3018 24.8594 77.3613 24.0508C76.4209 23.2334 75.9507 22.2095 75.9507 20.979C75.9507 19.4321 76.522 18.2632 77.6646 17.4722C78.8071 16.6812 80.4683 16.2856 82.6479 16.2856H84.019V15.5342C84.019 14.2246 83.4521 13.5698 82.3184 13.5698C81.2637 13.5698 80.7363 14.0884 80.7363 15.1255H76.2935C76.2935 13.7456 76.8779 12.625 78.0469 11.7637C79.2246 10.9023 80.7231 10.4717 82.5425 10.4717C84.3618 10.4717 85.7988 10.9155 86.8535 11.8032C87.9082 12.6909 88.4487 13.9082 88.4751 15.4551V21.77C88.4927 23.0796 88.6948 24.0815 89.0815 24.7759V25H84.6387ZM81.8569 22.0996C82.4106 22.0996 82.8677 21.981 83.228 21.7437C83.5972 21.5063 83.8608 21.2383 84.019 20.9395V18.6587H82.7271C81.1802 18.6587 80.4067 19.353 80.4067 20.7417C80.4067 21.146 80.543 21.4756 80.8154 21.7305C81.0879 21.9766 81.4351 22.0996 81.8569 22.0996ZM95.7261 10.7354V25.4878C95.7173 27.1753 95.2339 28.4761 94.2759 29.3901C93.3179 30.3042 91.9819 30.7612 90.2681 30.7612C89.5298 30.7612 88.8311 30.6865 88.1719 30.5371V27.1753C88.6816 27.2544 89.0991 27.2939 89.4243 27.2939C90.6548 27.2939 91.27 26.6831 91.27 25.4614V10.7354H95.7261ZM90.9404 7.05713C90.9404 6.42432 91.1689 5.90576 91.626 5.50146C92.083 5.09717 92.6763 4.89502 93.4058 4.89502C94.1353 4.89502 94.7285 5.09717 95.1855 5.50146C95.6426 5.90576 95.8711 6.42432 95.8711 7.05713C95.8711 7.68994 95.6426 8.2085 95.1855 8.61279C94.7285 9.01709 94.1353 9.21924 93.4058 9.21924C92.6763 9.21924 92.083 9.01709 91.626 8.61279C91.1689 8.2085 90.9404 7.68994 90.9404 7.05713ZM105.152 25.2637C102.964 25.2637 101.193 24.6133 99.8394 23.3125C98.4858 22.0029 97.8091 20.3022 97.8091 18.2104V17.8413C97.8091 16.3823 98.0771 15.0947 98.6133 13.9785C99.1582 12.8623 99.9492 12.001 100.986 11.3945C102.023 10.7793 103.254 10.4717 104.678 10.4717C106.682 10.4717 108.264 11.0957 109.424 12.3438C110.584 13.583 111.164 15.3145 111.164 17.5381V19.2651H102.331C102.489 20.0649 102.836 20.6934 103.373 21.1504C103.909 21.6074 104.603 21.8359 105.456 21.8359C106.862 21.8359 107.96 21.3438 108.751 20.3594L110.782 22.7588C110.228 23.5234 109.441 24.1343 108.422 24.5913C107.411 25.0396 106.321 25.2637 105.152 25.2637ZM104.651 13.8994C103.351 13.8994 102.577 14.7607 102.331 16.4834H106.813V16.1406C106.831 15.4287 106.651 14.8794 106.273 14.4927C105.895 14.0972 105.354 13.8994 104.651 13.8994ZM120.432 20.9922C120.432 20.6143 120.234 20.311 119.839 20.0825C119.443 19.854 118.692 19.6167 117.584 19.3706C116.477 19.1245 115.563 18.8037 114.842 18.4082C114.122 18.0039 113.572 17.5161 113.194 16.9448C112.816 16.3735 112.627 15.7188 112.627 14.9805C112.627 13.6709 113.168 12.5942 114.249 11.7505C115.33 10.8979 116.745 10.4717 118.494 10.4717C120.375 10.4717 121.887 10.8979 123.029 11.7505C124.172 12.603 124.743 13.7236 124.743 15.1123H120.287C120.287 13.9697 119.685 13.3984 118.481 13.3984C118.015 13.3984 117.624 13.5303 117.308 13.7939C116.991 14.0488 116.833 14.3696 116.833 14.7563C116.833 15.1519 117.026 15.4727 117.413 15.7188C117.8 15.9648 118.415 16.167 119.259 16.3252C120.111 16.4834 120.858 16.6724 121.5 16.8921C123.645 17.6304 124.717 18.9531 124.717 20.8604C124.717 22.1611 124.137 23.2202 122.977 24.0376C121.825 24.855 120.331 25.2637 118.494 25.2637C117.272 25.2637 116.183 25.0439 115.225 24.6045C114.267 24.165 113.52 23.5674 112.983 22.8115C112.447 22.0557 112.179 21.2603 112.179 20.4253H116.332C116.35 21.0845 116.569 21.5679 116.991 21.8755C117.413 22.1743 117.954 22.3237 118.613 22.3237C119.219 22.3237 119.672 22.2007 119.971 21.9546C120.278 21.7085 120.432 21.3877 120.432 20.9922ZM139.232 18.7773L141.605 10.7354H146.364L140.55 27.3862L140.3 27.9927C139.474 29.8384 138.015 30.7612 135.923 30.7612C135.343 30.7612 134.732 30.6733 134.09 30.4976V27.3203H134.67C135.294 27.3203 135.769 27.228 136.094 27.0435C136.428 26.8677 136.674 26.5469 136.833 26.0811L137.188 25.1318L132.231 10.7354H136.978L139.232 18.7773ZM170.503 25H165.902V16.9844H159.086V25H154.459V5.80469H159.086V13.4248H165.902V5.80469H170.503V25ZM180.141 25.2637C177.952 25.2637 176.181 24.6133 174.828 23.3125C173.474 22.0029 172.797 20.3022 172.797 18.2104V17.8413C172.797 16.3823 173.065 15.0947 173.602 13.9785C174.146 12.8623 174.938 12.001 175.975 11.3945C177.012 10.7793 178.242 10.4717 179.666 10.4717C181.67 10.4717 183.252 11.0957 184.412 12.3438C185.572 13.583 186.152 15.3145 186.152 17.5381V19.2651H177.319C177.478 20.0649 177.825 20.6934 178.361 21.1504C178.897 21.6074 179.591 21.8359 180.444 21.8359C181.85 21.8359 182.949 21.3438 183.74 20.3594L185.77 22.7588C185.216 23.5234 184.43 24.1343 183.41 24.5913C182.399 25.0396 181.31 25.2637 180.141 25.2637ZM179.64 13.8994C178.339 13.8994 177.565 14.7607 177.319 16.4834H181.802V16.1406C181.819 15.4287 181.639 14.8794 181.261 14.4927C180.883 14.0972 180.343 13.8994 179.64 13.8994ZM196.581 14.7563L195.117 14.6509C193.72 14.6509 192.823 15.0903 192.428 15.9692V25H187.985V10.7354H192.151L192.296 12.5679C193.043 11.1704 194.084 10.4717 195.42 10.4717C195.895 10.4717 196.308 10.5244 196.66 10.6299L196.581 14.7563ZM206.811 14.7563L205.348 14.6509C203.95 14.6509 203.054 15.0903 202.658 15.9692V25H198.215V10.7354H202.381L202.526 12.5679C203.273 11.1704 204.315 10.4717 205.651 10.4717C206.125 10.4717 206.539 10.5244 206.89 10.6299L206.811 14.7563ZM216.053 25C215.895 24.71 215.754 24.2837 215.631 23.7212C214.813 24.7495 213.671 25.2637 212.203 25.2637C210.858 25.2637 209.716 24.8594 208.775 24.0508C207.835 23.2334 207.365 22.2095 207.365 20.979C207.365 19.4321 207.936 18.2632 209.079 17.4722C210.221 16.6812 211.882 16.2856 214.062 16.2856H215.433V15.5342C215.433 14.2246 214.866 13.5698 213.732 13.5698C212.678 13.5698 212.15 14.0884 212.15 15.1255H207.708C207.708 13.7456 208.292 12.625 209.461 11.7637C210.639 10.9023 212.137 10.4717 213.957 10.4717C215.776 10.4717 217.213 10.9155 218.268 11.8032C219.322 12.6909 219.863 13.9082 219.889 15.4551V21.77C219.907 23.0796 220.109 24.0815 220.496 24.7759V25H216.053ZM213.271 22.0996C213.825 22.0996 214.282 21.981 214.642 21.7437C215.011 21.5063 215.275 21.2383 215.433 20.9395V18.6587H214.141C212.594 18.6587 211.821 19.353 211.821 20.7417C211.821 21.146 211.957 21.4756 212.229 21.7305C212.502 21.9766 212.849 22.0996 213.271 22.0996ZM226.56 10.7354L226.705 12.4097C227.716 11.1177 229.074 10.4717 230.779 10.4717C232.581 10.4717 233.798 11.188 234.431 12.6206C235.397 11.188 236.795 10.4717 238.623 10.4717C241.515 10.4717 243 12.2207 243.079 15.7188V25H238.623V15.9956C238.623 15.2661 238.5 14.7344 238.254 14.4004C238.008 14.0664 237.56 13.8994 236.909 13.8994C236.03 13.8994 235.375 14.2905 234.945 15.0728L234.958 15.2573V25H230.502V16.022C230.502 15.2749 230.383 14.7344 230.146 14.4004C229.909 14.0664 229.456 13.8994 228.788 13.8994C227.936 13.8994 227.285 14.2905 226.837 15.0728V25H222.394V10.7354H226.56ZM250.304 25H245.848V10.7354H250.304V25ZM245.584 7.05713C245.584 6.42432 245.812 5.90576 246.27 5.50146C246.727 5.09717 247.32 4.89502 248.049 4.89502C248.779 4.89502 249.372 5.09717 249.829 5.50146C250.286 5.90576 250.515 6.42432 250.515 7.05713C250.515 7.68994 250.286 8.2085 249.829 8.61279C249.372 9.01709 248.779 9.21924 248.049 9.21924C247.32 9.21924 246.727 9.01709 246.27 8.61279C245.812 8.2085 245.584 7.68994 245.584 7.05713ZM259.954 25.2637C257.766 25.2637 255.995 24.6133 254.641 23.3125C253.288 22.0029 252.611 20.3022 252.611 18.2104V17.8413C252.611 16.3823 252.879 15.0947 253.415 13.9785C253.96 12.8623 254.751 12.001 255.788 11.3945C256.825 10.7793 258.056 10.4717 259.479 10.4717C261.483 10.4717 263.065 11.0957 264.226 12.3438C265.386 13.583 265.966 15.3145 265.966 17.5381V19.2651H257.133C257.291 20.0649 257.638 20.6934 258.174 21.1504C258.71 21.6074 259.405 21.8359 260.257 21.8359C261.664 21.8359 262.762 21.3438 263.553 20.3594L265.583 22.7588C265.03 23.5234 264.243 24.1343 263.224 24.5913C262.213 25.0396 261.123 25.2637 259.954 25.2637ZM259.453 13.8994C258.152 13.8994 257.379 14.7607 257.133 16.4834H261.615V16.1406C261.633 15.4287 261.453 14.8794 261.075 14.4927C260.697 14.0972 260.156 13.8994 259.453 13.8994ZM271.846 10.7354L271.991 12.4097C272.975 11.1177 274.333 10.4717 276.064 10.4717C277.55 10.4717 278.657 10.9155 279.387 11.8032C280.125 12.6909 280.507 14.0269 280.534 15.811V25H276.078V15.9956C276.078 15.2749 275.933 14.7476 275.643 14.4136C275.353 14.0708 274.825 13.8994 274.061 13.8994C273.19 13.8994 272.544 14.2422 272.123 14.9277V25H267.68V10.7354H271.846ZM288.18 7.18896V10.7354H290.527V13.8203H288.18V20.3462C288.18 20.8823 288.277 21.2559 288.47 21.4668C288.664 21.6777 289.046 21.7832 289.617 21.7832C290.057 21.7832 290.426 21.7568 290.725 21.7041V24.8813C289.925 25.1362 289.09 25.2637 288.22 25.2637C286.69 25.2637 285.561 24.9033 284.832 24.1826C284.102 23.4619 283.737 22.3677 283.737 20.8999V13.8203H281.918V10.7354H283.737V7.18896H288.18ZM300.322 25C300.164 24.71 300.023 24.2837 299.9 23.7212C299.083 24.7495 297.94 25.2637 296.473 25.2637C295.128 25.2637 293.985 24.8594 293.045 24.0508C292.104 23.2334 291.634 22.2095 291.634 20.979C291.634 19.4321 292.206 18.2632 293.348 17.4722C294.491 16.6812 296.152 16.2856 298.332 16.2856H299.703V15.5342C299.703 14.2246 299.136 13.5698 298.002 13.5698C296.947 13.5698 296.42 14.0884 296.42 15.1255H291.977C291.977 13.7456 292.562 12.625 293.73 11.7637C294.908 10.9023 296.407 10.4717 298.226 10.4717C300.045 10.4717 301.482 10.9155 302.537 11.8032C303.592 12.6909 304.132 13.9082 304.159 15.4551V21.77C304.176 23.0796 304.378 24.0815 304.765 24.7759V25H300.322ZM297.541 22.0996C298.094 22.0996 298.551 21.981 298.912 21.7437C299.281 21.5063 299.544 21.2383 299.703 20.9395V18.6587H298.411C296.864 18.6587 296.09 19.353 296.09 20.7417C296.09 21.146 296.227 21.4756 296.499 21.7305C296.771 21.9766 297.119 22.0996 297.541 22.0996ZM314.099 20.9922C314.099 20.6143 313.901 20.311 313.506 20.0825C313.11 19.854 312.359 19.6167 311.251 19.3706C310.144 19.1245 309.23 18.8037 308.509 18.4082C307.789 18.0039 307.239 17.5161 306.861 16.9448C306.483 16.3735 306.294 15.7188 306.294 14.9805C306.294 13.6709 306.835 12.5942 307.916 11.7505C308.997 10.8979 310.412 10.4717 312.161 10.4717C314.042 10.4717 315.554 10.8979 316.696 11.7505C317.839 12.603 318.41 13.7236 318.41 15.1123H313.954C313.954 13.9697 313.352 13.3984 312.148 13.3984C311.682 13.3984 311.291 13.5303 310.975 13.7939C310.658 14.0488 310.5 14.3696 310.5 14.7563C310.5 15.1519 310.693 15.4727 311.08 15.7188C311.467 15.9648 312.082 16.167 312.926 16.3252C313.778 16.4834 314.525 16.6724 315.167 16.8921C317.312 17.6304 318.384 18.9531 318.384 20.8604C318.384 22.1611 317.804 23.2202 316.644 24.0376C315.492 24.855 313.998 25.2637 312.161 25.2637C310.939 25.2637 309.85 25.0439 308.892 24.6045C307.934 24.165 307.187 23.5674 306.65 22.8115C306.114 22.0557 305.846 21.2603 305.846 20.4253H309.999C310.017 21.0845 310.236 21.5679 310.658 21.8755C311.08 22.1743 311.621 22.3237 312.28 22.3237C312.886 22.3237 313.339 22.2007 313.638 21.9546C313.945 21.7085 314.099 21.3877 314.099 20.9922ZM323.235 20.689C323.938 20.689 324.523 20.8999 324.989 21.3218C325.455 21.7349 325.688 22.2666 325.688 22.917C325.688 23.5674 325.455 24.1035 324.989 24.5254C324.523 24.9385 323.938 25.145 323.235 25.145C322.523 25.145 321.935 24.9341 321.469 24.5122C321.012 24.0903 320.783 23.5586 320.783 22.917C320.783 22.2754 321.012 21.7437 321.469 21.3218C321.935 20.8999 322.523 20.689 323.235 20.689ZM323.235 10.1685C323.938 10.1685 324.523 10.3794 324.989 10.8013C325.455 11.2144 325.688 11.7461 325.688 12.3965C325.688 13.0469 325.455 13.583 324.989 14.0049C324.523 14.418 323.938 14.6245 323.235 14.6245C322.523 14.6245 321.935 14.4136 321.469 13.9917C321.012 13.5698 320.783 13.0381 320.783 12.3965C320.783 11.7549 321.012 11.2231 321.469 10.8013C321.935 10.3794 322.523 10.1685 323.235 10.1685Z" fill="#95CA3E"/>
<rect y="32" width="327" height="8" fill="#95CA3E"/>
</svg>
